M48
;DRILL file {KiCad 4.0.6} date Fri Mar 17 12:31:47 2017
;FORMAT={-:-/ absolute / inch / decimal}
FMAT,2
INCH,TZ
T1C0.016
T2C0.031
T3C0.039
T4C0.051
T5C0.067
T6C0.098
%
G90
G05
M72
T1
X0.785Y-1.1445
X0.785Y-2.9945
X1.4098Y-1.0815
X2.0126Y-0.8
X2.6382Y-0.9713
X2.6382Y-1.0146
X2.7287Y-1.0185
X2.7327Y-0.9673
X3.0398Y-0.798
X3.5374Y-0.8
X4.3346Y-1.1417
X4.335Y-2.9949
T2
X1.4Y-0.9
X1.4Y-1.2
X1.5Y-0.9
X1.5Y-1.2
X1.6Y-0.9
X1.6Y-1.2
X1.7Y-0.9
X1.7Y-1.2
X1.8Y-0.9
X1.8Y-1.2
X1.9Y-0.9
X1.9Y-1.2
X2.Y-0.9
X2.Y-1.2
X2.1Y-0.9
X2.1Y-1.2
X2.2Y-0.9
X2.2Y-1.2
X2.3Y-0.9
X2.3Y-1.2
X2.4Y-0.9
X2.4Y-1.2
X2.5Y-0.9
X2.5Y-1.2
X2.6Y-0.9
X2.6Y-1.2
X2.7Y-0.9
X2.7Y-1.2
T3
X1.15Y-0.95
X1.15Y-1.05
X1.15Y-1.15
X1.25Y-0.95
X1.25Y-1.05
X1.25Y-1.15
X1.3902Y-1.3437
X1.4902Y-1.3437
X1.5902Y-1.3437
X1.6902Y-1.3437
X1.74Y-2.4495
X1.7902Y-1.3437
X1.84Y-2.4495
X1.8902Y-1.3437
X1.94Y-2.4495
X1.9902Y-1.3437
X2.04Y-2.4495
X2.0902Y-1.3437
X2.1902Y-1.3437
X2.2902Y-1.3437
X2.3902Y-1.3437
X2.4902Y-1.3437
X2.5902Y-1.3437
X2.6902Y-1.3437
X3.2Y-2.45
X3.3Y-2.45
X3.8425Y-1.0008
X3.8425Y-1.0992
X4.Y-1.0008
X4.Y-1.0992
X4.1575Y-1.0008
X4.1575Y-1.0992
T4
X3.7638Y-0.9319
X3.7638Y-1.1681
X4.2362Y-0.9319
X4.2362Y-1.1681
T5
X3.Y-1.05
X3.4858Y-1.05
T6
X1.149Y-1.3652
X1.149Y-2.6348
X4.151Y-1.3652
X4.151Y-2.6358
T0
M30
