G04 #@! TF.FileFunction,Legend,Top*
%FSLAX46Y46*%
G04 Gerber Fmt 4.6, Leading zero omitted, Abs format (unit mm)*
G04 Created by KiCad (PCBNEW 4.0.6) date Fri Mar 17 12:33:41 2017*
%MOMM*%
%LPD*%
G01*
G04 APERTURE LIST*
%ADD10C,0.100000*%
%ADD11C,0.120000*%
%ADD12C,0.200000*%
%ADD13C,0.150000*%
G04 APERTURE END LIST*
D10*
D11*
X82550000Y-63620000D02*
X85210000Y-63620000D01*
X85210000Y-63620000D02*
X85210000Y-60840000D01*
X85210000Y-60840000D02*
X82550000Y-60840000D01*
X82550000Y-60840000D02*
X82550000Y-63620000D01*
X81280000Y-63620000D02*
X79890000Y-63620000D01*
X79890000Y-63620000D02*
X79890000Y-62230000D01*
X52420000Y-20920000D02*
X51720000Y-20920000D01*
X51720000Y-19720000D02*
X52420000Y-19720000D01*
X75850000Y-19720000D02*
X76550000Y-19720000D01*
X76550000Y-20920000D02*
X75850000Y-20920000D01*
X88550000Y-19720000D02*
X89250000Y-19720000D01*
X89250000Y-20920000D02*
X88550000Y-20920000D01*
X27820000Y-25400000D02*
X27820000Y-30600000D01*
X27820000Y-30600000D02*
X33140000Y-30600000D01*
X33140000Y-30600000D02*
X33140000Y-22740000D01*
X33140000Y-22740000D02*
X30480000Y-22740000D01*
X30480000Y-22740000D02*
X30480000Y-25400000D01*
X30480000Y-25400000D02*
X27820000Y-25400000D01*
X27820000Y-24130000D02*
X27820000Y-22740000D01*
X27820000Y-22740000D02*
X29210000Y-22740000D01*
D12*
X20590000Y-25670000D02*
X22590000Y-25670000D01*
X22590000Y-25670000D02*
X22590000Y-27670000D01*
X22590000Y-27670000D02*
X21090000Y-27670000D01*
X21090000Y-27670000D02*
X20590000Y-27170000D01*
X20590000Y-27170000D02*
X20590000Y-25670000D01*
X19090000Y-25670000D02*
X19090000Y-27670000D01*
X21090000Y-29170000D02*
X22090000Y-29170000D01*
X24090000Y-25670000D02*
X24090000Y-27670000D01*
X21090000Y-24170000D02*
X22090000Y-24170000D01*
X20590000Y-72660000D02*
X22590000Y-72660000D01*
X22590000Y-72660000D02*
X22590000Y-74660000D01*
X22590000Y-74660000D02*
X21090000Y-74660000D01*
X21090000Y-74660000D02*
X20590000Y-74160000D01*
X20590000Y-74160000D02*
X20590000Y-72660000D01*
X19090000Y-72660000D02*
X19090000Y-74660000D01*
X21090000Y-76160000D02*
X22090000Y-76160000D01*
X24090000Y-72660000D02*
X24090000Y-74660000D01*
X21090000Y-71160000D02*
X22090000Y-71160000D01*
X110760000Y-72660000D02*
X112760000Y-72660000D01*
X112760000Y-72660000D02*
X112760000Y-74660000D01*
X112760000Y-74660000D02*
X111260000Y-74660000D01*
X111260000Y-74660000D02*
X110760000Y-74160000D01*
X110760000Y-74160000D02*
X110760000Y-72660000D01*
X109260000Y-72660000D02*
X109260000Y-74660000D01*
X111260000Y-76160000D02*
X112260000Y-76160000D01*
X114260000Y-72660000D02*
X114260000Y-74660000D01*
X111260000Y-71160000D02*
X112260000Y-71160000D01*
X110760000Y-25670000D02*
X112760000Y-25670000D01*
X112760000Y-25670000D02*
X112760000Y-27670000D01*
X112760000Y-27670000D02*
X111260000Y-27670000D01*
X111260000Y-27670000D02*
X110760000Y-27170000D01*
X110760000Y-27170000D02*
X110760000Y-25670000D01*
X109260000Y-25670000D02*
X109260000Y-27670000D01*
X111260000Y-29170000D02*
X112260000Y-29170000D01*
X114260000Y-25670000D02*
X114260000Y-27670000D01*
X111260000Y-24170000D02*
X112260000Y-24170000D01*
D11*
X45467000Y-63607000D02*
X53207000Y-63607000D01*
X53207000Y-63607000D02*
X53207000Y-60827000D01*
X53207000Y-60827000D02*
X45467000Y-60827000D01*
X45467000Y-60827000D02*
X45467000Y-63607000D01*
X44197000Y-63607000D02*
X42807000Y-63607000D01*
X42807000Y-63607000D02*
X42807000Y-62217000D01*
X34170000Y-25670000D02*
G75*
G02X34170000Y-27670000I0J-1000000D01*
G01*
X34170000Y-27670000D02*
X34170000Y-29440000D01*
X34170000Y-29440000D02*
X69970000Y-29440000D01*
X69970000Y-29440000D02*
X69970000Y-23900000D01*
X69970000Y-23900000D02*
X34170000Y-23900000D01*
X34170000Y-23900000D02*
X34170000Y-25670000D01*
X77225000Y-31340000D02*
G75*
G02X77225000Y-22000000I0J4670000D01*
G01*
X87515000Y-31340000D02*
G75*
G03X87515000Y-22000000I0J4670000D01*
G01*
X77225000Y-22000000D02*
X87515000Y-22000000D01*
X77225000Y-31340000D02*
X87515000Y-31340000D01*
D13*
X107310000Y-32800000D02*
X107310000Y-68800000D01*
X27310000Y-32800000D02*
X27310000Y-68800000D01*
X27310000Y-32800000D02*
X107310000Y-32800000D01*
X27310000Y-68800000D02*
X107310000Y-68800000D01*
X78818571Y-63015714D02*
X78866190Y-62872857D01*
X78913810Y-62825238D01*
X79009048Y-62777619D01*
X79151905Y-62777619D01*
X79247143Y-62825238D01*
X79294762Y-62872857D01*
X79342381Y-62968095D01*
X79342381Y-63349048D01*
X78342381Y-63349048D01*
X78342381Y-63015714D01*
X78390000Y-62920476D01*
X78437619Y-62872857D01*
X78532857Y-62825238D01*
X78628095Y-62825238D01*
X78723333Y-62872857D01*
X78770952Y-62920476D01*
X78818571Y-63015714D01*
X78818571Y-63349048D01*
X78342381Y-62491905D02*
X78342381Y-61920476D01*
X79342381Y-62206191D02*
X78342381Y-62206191D01*
X79342381Y-61063333D02*
X79342381Y-61634762D01*
X79342381Y-61349048D02*
X78342381Y-61349048D01*
X78485238Y-61444286D01*
X78580476Y-61539524D01*
X78628095Y-61634762D01*
X51903334Y-21927143D02*
X51855715Y-21974762D01*
X51712858Y-22022381D01*
X51617620Y-22022381D01*
X51474762Y-21974762D01*
X51379524Y-21879524D01*
X51331905Y-21784286D01*
X51284286Y-21593810D01*
X51284286Y-21450952D01*
X51331905Y-21260476D01*
X51379524Y-21165238D01*
X51474762Y-21070000D01*
X51617620Y-21022381D01*
X51712858Y-21022381D01*
X51855715Y-21070000D01*
X51903334Y-21117619D01*
X52855715Y-22022381D02*
X52284286Y-22022381D01*
X52570000Y-22022381D02*
X52570000Y-21022381D01*
X52474762Y-21165238D01*
X52379524Y-21260476D01*
X52284286Y-21308095D01*
X76033334Y-19427143D02*
X75985715Y-19474762D01*
X75842858Y-19522381D01*
X75747620Y-19522381D01*
X75604762Y-19474762D01*
X75509524Y-19379524D01*
X75461905Y-19284286D01*
X75414286Y-19093810D01*
X75414286Y-18950952D01*
X75461905Y-18760476D01*
X75509524Y-18665238D01*
X75604762Y-18570000D01*
X75747620Y-18522381D01*
X75842858Y-18522381D01*
X75985715Y-18570000D01*
X76033334Y-18617619D01*
X76414286Y-18617619D02*
X76461905Y-18570000D01*
X76557143Y-18522381D01*
X76795239Y-18522381D01*
X76890477Y-18570000D01*
X76938096Y-18617619D01*
X76985715Y-18712857D01*
X76985715Y-18808095D01*
X76938096Y-18950952D01*
X76366667Y-19522381D01*
X76985715Y-19522381D01*
X88733334Y-19427143D02*
X88685715Y-19474762D01*
X88542858Y-19522381D01*
X88447620Y-19522381D01*
X88304762Y-19474762D01*
X88209524Y-19379524D01*
X88161905Y-19284286D01*
X88114286Y-19093810D01*
X88114286Y-18950952D01*
X88161905Y-18760476D01*
X88209524Y-18665238D01*
X88304762Y-18570000D01*
X88447620Y-18522381D01*
X88542858Y-18522381D01*
X88685715Y-18570000D01*
X88733334Y-18617619D01*
X89066667Y-18522381D02*
X89685715Y-18522381D01*
X89352381Y-18903333D01*
X89495239Y-18903333D01*
X89590477Y-18950952D01*
X89638096Y-18998571D01*
X89685715Y-19093810D01*
X89685715Y-19331905D01*
X89638096Y-19427143D01*
X89590477Y-19474762D01*
X89495239Y-19522381D01*
X89209524Y-19522381D01*
X89114286Y-19474762D01*
X89066667Y-19427143D01*
X29027619Y-22192381D02*
X29027619Y-21192381D01*
X29456190Y-22144762D02*
X29599047Y-22192381D01*
X29837143Y-22192381D01*
X29932381Y-22144762D01*
X29980000Y-22097143D01*
X30027619Y-22001905D01*
X30027619Y-21906667D01*
X29980000Y-21811429D01*
X29932381Y-21763810D01*
X29837143Y-21716190D01*
X29646666Y-21668571D01*
X29551428Y-21620952D01*
X29503809Y-21573333D01*
X29456190Y-21478095D01*
X29456190Y-21382857D01*
X29503809Y-21287619D01*
X29551428Y-21240000D01*
X29646666Y-21192381D01*
X29884762Y-21192381D01*
X30027619Y-21240000D01*
X30456190Y-22192381D02*
X30456190Y-21192381D01*
X30837143Y-21192381D01*
X30932381Y-21240000D01*
X30980000Y-21287619D01*
X31027619Y-21382857D01*
X31027619Y-21525714D01*
X30980000Y-21620952D01*
X30932381Y-21668571D01*
X30837143Y-21716190D01*
X30456190Y-21716190D01*
X31980000Y-22192381D02*
X31408571Y-22192381D01*
X31694285Y-22192381D02*
X31694285Y-21192381D01*
X31599047Y-21335238D01*
X31503809Y-21430476D01*
X31408571Y-21478095D01*
D12*
X20470953Y-22422381D02*
X19994762Y-22422381D01*
X19994762Y-21422381D01*
X20804286Y-21898571D02*
X21137620Y-21898571D01*
X21280477Y-22422381D02*
X20804286Y-22422381D01*
X20804286Y-21422381D01*
X21280477Y-21422381D01*
X21709048Y-22422381D02*
X21709048Y-21422381D01*
X21947143Y-21422381D01*
X22090001Y-21470000D01*
X22185239Y-21565238D01*
X22232858Y-21660476D01*
X22280477Y-21850952D01*
X22280477Y-21993810D01*
X22232858Y-22184286D01*
X22185239Y-22279524D01*
X22090001Y-22374762D01*
X21947143Y-22422381D01*
X21709048Y-22422381D01*
X23232858Y-22422381D02*
X22661429Y-22422381D01*
X22947143Y-22422381D02*
X22947143Y-21422381D01*
X22851905Y-21565238D01*
X22756667Y-21660476D01*
X22661429Y-21708095D01*
X20470953Y-69412381D02*
X19994762Y-69412381D01*
X19994762Y-68412381D01*
X20804286Y-68888571D02*
X21137620Y-68888571D01*
X21280477Y-69412381D02*
X20804286Y-69412381D01*
X20804286Y-68412381D01*
X21280477Y-68412381D01*
X21709048Y-69412381D02*
X21709048Y-68412381D01*
X21947143Y-68412381D01*
X22090001Y-68460000D01*
X22185239Y-68555238D01*
X22232858Y-68650476D01*
X22280477Y-68840952D01*
X22280477Y-68983810D01*
X22232858Y-69174286D01*
X22185239Y-69269524D01*
X22090001Y-69364762D01*
X21947143Y-69412381D01*
X21709048Y-69412381D01*
X22661429Y-68507619D02*
X22709048Y-68460000D01*
X22804286Y-68412381D01*
X23042382Y-68412381D01*
X23137620Y-68460000D01*
X23185239Y-68507619D01*
X23232858Y-68602857D01*
X23232858Y-68698095D01*
X23185239Y-68840952D01*
X22613810Y-69412381D01*
X23232858Y-69412381D01*
X110640953Y-69412381D02*
X110164762Y-69412381D01*
X110164762Y-68412381D01*
X110974286Y-68888571D02*
X111307620Y-68888571D01*
X111450477Y-69412381D02*
X110974286Y-69412381D01*
X110974286Y-68412381D01*
X111450477Y-68412381D01*
X111879048Y-69412381D02*
X111879048Y-68412381D01*
X112117143Y-68412381D01*
X112260001Y-68460000D01*
X112355239Y-68555238D01*
X112402858Y-68650476D01*
X112450477Y-68840952D01*
X112450477Y-68983810D01*
X112402858Y-69174286D01*
X112355239Y-69269524D01*
X112260001Y-69364762D01*
X112117143Y-69412381D01*
X111879048Y-69412381D01*
X112783810Y-68412381D02*
X113402858Y-68412381D01*
X113069524Y-68793333D01*
X113212382Y-68793333D01*
X113307620Y-68840952D01*
X113355239Y-68888571D01*
X113402858Y-68983810D01*
X113402858Y-69221905D01*
X113355239Y-69317143D01*
X113307620Y-69364762D01*
X113212382Y-69412381D01*
X112926667Y-69412381D01*
X112831429Y-69364762D01*
X112783810Y-69317143D01*
X110640953Y-22422381D02*
X110164762Y-22422381D01*
X110164762Y-21422381D01*
X110974286Y-21898571D02*
X111307620Y-21898571D01*
X111450477Y-22422381D02*
X110974286Y-22422381D01*
X110974286Y-21422381D01*
X111450477Y-21422381D01*
X111879048Y-22422381D02*
X111879048Y-21422381D01*
X112117143Y-21422381D01*
X112260001Y-21470000D01*
X112355239Y-21565238D01*
X112402858Y-21660476D01*
X112450477Y-21850952D01*
X112450477Y-21993810D01*
X112402858Y-22184286D01*
X112355239Y-22279524D01*
X112260001Y-22374762D01*
X112117143Y-22422381D01*
X111879048Y-22422381D01*
X113307620Y-21755714D02*
X113307620Y-22422381D01*
X113069524Y-21374762D02*
X112831429Y-22089048D01*
X113450477Y-22089048D01*
D13*
X42259381Y-62955095D02*
X41259381Y-62955095D01*
X41259381Y-62574142D01*
X41307000Y-62478904D01*
X41354619Y-62431285D01*
X41449857Y-62383666D01*
X41592714Y-62383666D01*
X41687952Y-62431285D01*
X41735571Y-62478904D01*
X41783190Y-62574142D01*
X41783190Y-62955095D01*
X41354619Y-62002714D02*
X41307000Y-61955095D01*
X41259381Y-61859857D01*
X41259381Y-61621761D01*
X41307000Y-61526523D01*
X41354619Y-61478904D01*
X41449857Y-61431285D01*
X41545095Y-61431285D01*
X41687952Y-61478904D01*
X42259381Y-62050333D01*
X42259381Y-61431285D01*
X95186667Y-21994762D02*
X95329524Y-22042381D01*
X95567620Y-22042381D01*
X95662858Y-21994762D01*
X95710477Y-21947143D01*
X95758096Y-21851905D01*
X95758096Y-21756667D01*
X95710477Y-21661429D01*
X95662858Y-21613810D01*
X95567620Y-21566190D01*
X95377143Y-21518571D01*
X95281905Y-21470952D01*
X95234286Y-21423333D01*
X95186667Y-21328095D01*
X95186667Y-21232857D01*
X95234286Y-21137619D01*
X95281905Y-21090000D01*
X95377143Y-21042381D01*
X95615239Y-21042381D01*
X95758096Y-21090000D01*
X96091429Y-21042381D02*
X96329524Y-22042381D01*
X96520001Y-21328095D01*
X96710477Y-22042381D01*
X96948572Y-21042381D01*
X97853334Y-22042381D02*
X97281905Y-22042381D01*
X97567619Y-22042381D02*
X97567619Y-21042381D01*
X97472381Y-21185238D01*
X97377143Y-21280476D01*
X97281905Y-21328095D01*
X32622381Y-27431905D02*
X33431905Y-27431905D01*
X33527143Y-27384286D01*
X33574762Y-27336667D01*
X33622381Y-27241429D01*
X33622381Y-27050952D01*
X33574762Y-26955714D01*
X33527143Y-26908095D01*
X33431905Y-26860476D01*
X32622381Y-26860476D01*
X33622381Y-25860476D02*
X33622381Y-26431905D01*
X33622381Y-26146191D02*
X32622381Y-26146191D01*
X32765238Y-26241429D01*
X32860476Y-26336667D01*
X32908095Y-26431905D01*
X81893809Y-20976190D02*
X81893809Y-21452381D01*
X81560476Y-20452381D02*
X81893809Y-20976190D01*
X82227143Y-20452381D01*
X83084286Y-21452381D02*
X82512857Y-21452381D01*
X82798571Y-21452381D02*
X82798571Y-20452381D01*
X82703333Y-20595238D01*
X82608095Y-20690476D01*
X82512857Y-20738095D01*
X32532819Y-68041781D02*
X32532819Y-67041781D01*
X32770914Y-67041781D01*
X32913772Y-67089400D01*
X33009010Y-67184638D01*
X33056629Y-67279876D01*
X33104248Y-67470352D01*
X33104248Y-67613210D01*
X33056629Y-67803686D01*
X33009010Y-67898924D01*
X32913772Y-67994162D01*
X32770914Y-68041781D01*
X32532819Y-68041781D01*
X33532819Y-68041781D02*
X33532819Y-67041781D01*
X33961390Y-67994162D02*
X34104247Y-68041781D01*
X34342343Y-68041781D01*
X34437581Y-67994162D01*
X34485200Y-67946543D01*
X34532819Y-67851305D01*
X34532819Y-67756067D01*
X34485200Y-67660829D01*
X34437581Y-67613210D01*
X34342343Y-67565590D01*
X34151866Y-67517971D01*
X34056628Y-67470352D01*
X34009009Y-67422733D01*
X33961390Y-67327495D01*
X33961390Y-67232257D01*
X34009009Y-67137019D01*
X34056628Y-67089400D01*
X34151866Y-67041781D01*
X34389962Y-67041781D01*
X34532819Y-67089400D01*
X35485200Y-68041781D02*
X34913771Y-68041781D01*
X35199485Y-68041781D02*
X35199485Y-67041781D01*
X35104247Y-67184638D01*
X35009009Y-67279876D01*
X34913771Y-67327495D01*
M02*
