G04 #@! TF.FileFunction,Copper,L1,Top,Signal*
%FSLAX46Y46*%
G04 Gerber Fmt 4.6, Leading zero omitted, Abs format (unit mm)*
G04 Created by KiCad (PCBNEW 4.0.6) date Fri Mar 17 12:33:41 2017*
%MOMM*%
%LPD*%
G01*
G04 APERTURE LIST*
%ADD10C,0.100000*%
%ADD11R,1.700000X1.700000*%
%ADD12O,1.700000X1.700000*%
%ADD13R,1.200000X0.750000*%
%ADD14R,1.400000X1.800000*%
%ADD15C,1.500000*%
%ADD16C,1.800000*%
%ADD17R,1.600000X1.600000*%
%ADD18O,1.600000X1.600000*%
%ADD19C,2.700000*%
%ADD20R,3.750000X3.750000*%
%ADD21C,1.250000*%
%ADD22C,0.600000*%
%ADD23C,0.600000*%
%ADD24C,0.250000*%
%ADD25C,0.254000*%
G04 APERTURE END LIST*
D10*
D11*
X81280000Y-62230000D03*
D12*
X83820000Y-62230000D03*
D13*
X53020000Y-20320000D03*
X51120000Y-20320000D03*
X75250000Y-20320000D03*
X77150000Y-20320000D03*
X87950000Y-20320000D03*
X89850000Y-20320000D03*
D11*
X29210000Y-24130000D03*
D12*
X31750000Y-24130000D03*
X29210000Y-26670000D03*
X31750000Y-26670000D03*
X29210000Y-29210000D03*
X31750000Y-29210000D03*
D14*
X23240000Y-24270000D03*
X19940000Y-24270000D03*
X19940000Y-29070000D03*
X23240000Y-29070000D03*
X23240000Y-71260000D03*
X19940000Y-71260000D03*
X19940000Y-76060000D03*
X23240000Y-76060000D03*
X113410000Y-71260000D03*
X110110000Y-71260000D03*
X110110000Y-76060000D03*
X113410000Y-76060000D03*
X113410000Y-24270000D03*
X110110000Y-24270000D03*
X110110000Y-29070000D03*
X113410000Y-29070000D03*
D11*
X44197000Y-62217000D03*
D12*
X46737000Y-62217000D03*
X49277000Y-62217000D03*
X51817000Y-62217000D03*
D15*
X97600000Y-25420000D03*
X101600000Y-25420000D03*
X105600000Y-25420000D03*
X97600000Y-27920000D03*
X101600000Y-27920000D03*
X105600000Y-27920000D03*
D16*
X95600000Y-23670000D03*
X107600000Y-23670000D03*
X95600000Y-29670000D03*
X107600000Y-29670000D03*
D17*
X35560000Y-30480000D03*
D18*
X68580000Y-22860000D03*
X38100000Y-30480000D03*
X66040000Y-22860000D03*
X40640000Y-30480000D03*
X63500000Y-22860000D03*
X43180000Y-30480000D03*
X60960000Y-22860000D03*
X45720000Y-30480000D03*
X58420000Y-22860000D03*
X48260000Y-30480000D03*
X55880000Y-22860000D03*
X50800000Y-30480000D03*
X53340000Y-22860000D03*
X53340000Y-30480000D03*
X50800000Y-22860000D03*
X55880000Y-30480000D03*
X48260000Y-22860000D03*
X58420000Y-30480000D03*
X45720000Y-22860000D03*
X60960000Y-30480000D03*
X43180000Y-22860000D03*
X63500000Y-30480000D03*
X40640000Y-22860000D03*
X66040000Y-30480000D03*
X38100000Y-22860000D03*
X68580000Y-30480000D03*
X35560000Y-22860000D03*
D19*
X76200000Y-26670000D03*
X88540000Y-26670000D03*
D20*
X29185000Y-34675000D03*
X105435000Y-34675000D03*
X29185000Y-66925000D03*
X105435000Y-66950000D03*
D21*
X35310000Y-34130000D03*
X37850000Y-34130000D03*
X40390000Y-34130000D03*
X42930000Y-34130000D03*
X45470000Y-34130000D03*
X48010000Y-34130000D03*
X50550000Y-34130000D03*
X53090000Y-34130000D03*
X55630000Y-34130000D03*
X58170000Y-34130000D03*
X60710000Y-34130000D03*
X63250000Y-34130000D03*
X65790000Y-34130000D03*
X68330000Y-34130000D03*
D22*
X77210000Y-20270000D03*
X89850000Y-20320000D03*
X51120000Y-20320000D03*
X110110000Y-76070000D03*
X19940000Y-76060000D03*
X110100000Y-29000000D03*
X19940000Y-29070000D03*
X67010000Y-24670000D03*
X69410000Y-24570000D03*
X67010000Y-25770000D03*
X69310000Y-25870000D03*
X35810000Y-27470000D03*
D23*
X72390000Y-62230000D02*
X72390000Y-61790000D01*
D24*
X72390000Y-62230000D02*
X72390000Y-61390000D01*
X72390000Y-62230000D02*
X72550000Y-62230000D01*
D23*
X74930000Y-62230000D02*
X81280000Y-62230000D01*
X101600000Y-27920000D02*
X101600000Y-25420000D01*
D24*
X77210000Y-20270000D02*
X77160000Y-20320000D01*
X77160000Y-20320000D02*
X77150000Y-20320000D01*
X110110000Y-76070000D02*
X110110000Y-76060000D01*
X110100000Y-29000000D02*
X110110000Y-29010000D01*
X110110000Y-29010000D02*
X110110000Y-29070000D01*
X109600000Y-76100000D02*
X109640000Y-76060000D01*
X109640000Y-76060000D02*
X110110000Y-76060000D01*
X76200000Y-26670000D02*
X71510000Y-26670000D01*
X55880000Y-28900000D02*
X55880000Y-30480000D01*
X60010000Y-24770000D02*
X55880000Y-28900000D01*
X66910000Y-24770000D02*
X60010000Y-24770000D01*
X67010000Y-24670000D02*
X66910000Y-24770000D01*
X71510000Y-26670000D02*
X69410000Y-24570000D01*
X75250000Y-20320000D02*
X75250000Y-25720000D01*
X75250000Y-25720000D02*
X76200000Y-26670000D01*
X88540000Y-26670000D02*
X79310000Y-26670000D01*
X58420000Y-27660000D02*
X58420000Y-30480000D01*
X60310000Y-25770000D02*
X58420000Y-27660000D01*
X67010000Y-25770000D02*
X60310000Y-25770000D01*
X72710000Y-29270000D02*
X69310000Y-25870000D01*
X76710000Y-29270000D02*
X72710000Y-29270000D01*
X79310000Y-26670000D02*
X76710000Y-29270000D01*
X87950000Y-20320000D02*
X87950000Y-26080000D01*
X87950000Y-26080000D02*
X88540000Y-26670000D01*
X30510000Y-27970000D02*
X29210000Y-26670000D01*
X35310000Y-27970000D02*
X30510000Y-27970000D01*
X35810000Y-27470000D02*
X35310000Y-27970000D01*
X35560000Y-30480000D02*
X34400000Y-30480000D01*
X31270000Y-31270000D02*
X29210000Y-29210000D01*
X33610000Y-31270000D02*
X31270000Y-31270000D01*
X34400000Y-30480000D02*
X33610000Y-31270000D01*
X19940000Y-24270000D02*
X19310000Y-24270000D01*
X19310000Y-24270000D02*
X18110000Y-25470000D01*
X18110000Y-25470000D02*
X18110000Y-71970000D01*
X18110000Y-71970000D02*
X19710000Y-73570000D01*
X19710000Y-73570000D02*
X20750000Y-73570000D01*
X20750000Y-73570000D02*
X23240000Y-76060000D01*
X48260000Y-22860000D02*
X48260000Y-22320000D01*
X48260000Y-22320000D02*
X47110000Y-21170000D01*
X47110000Y-21170000D02*
X28510000Y-21170000D01*
X28510000Y-21170000D02*
X25610000Y-24070000D01*
X25610000Y-24070000D02*
X25610000Y-26700000D01*
X25610000Y-26700000D02*
X23240000Y-29070000D01*
X19940000Y-71260000D02*
X20200000Y-71260000D01*
X20200000Y-71260000D02*
X22610000Y-73670000D01*
X22610000Y-73670000D02*
X111020000Y-73670000D01*
X111020000Y-73670000D02*
X113410000Y-76060000D01*
X110110000Y-71260000D02*
X110110000Y-32370000D01*
X110110000Y-32370000D02*
X113410000Y-29070000D01*
D23*
X97600000Y-27920000D02*
X97600000Y-25420000D01*
X105600000Y-27920000D02*
X105600000Y-25420000D01*
D24*
X68580000Y-22860000D02*
X68580000Y-28448000D01*
X66976200Y-32943800D02*
X65790000Y-34130000D01*
X68592700Y-32943800D02*
X66976200Y-32943800D01*
X70040500Y-31496000D02*
X68592700Y-32943800D01*
X70040500Y-29908500D02*
X70040500Y-31496000D01*
X68580000Y-28448000D02*
X70040500Y-29908500D01*
X38100000Y-30480000D02*
X38442900Y-30480000D01*
X38442900Y-30480000D02*
X42092900Y-34130000D01*
X42092900Y-34130000D02*
X42930000Y-34130000D01*
X40640000Y-30480000D02*
X40970200Y-30480000D01*
X40970200Y-30480000D02*
X44620200Y-34130000D01*
X44620200Y-34130000D02*
X45470000Y-34130000D01*
X43180000Y-30480000D02*
X43522900Y-30480000D01*
X43522900Y-30480000D02*
X47172900Y-34130000D01*
X47172900Y-34130000D02*
X48010000Y-34130000D01*
X45720000Y-30480000D02*
X46101000Y-30480000D01*
X46101000Y-30480000D02*
X49751000Y-34130000D01*
X49751000Y-34130000D02*
X50550000Y-34130000D01*
X48260000Y-30480000D02*
X48602900Y-30480000D01*
X48602900Y-30480000D02*
X52252900Y-34130000D01*
X52252900Y-34130000D02*
X53090000Y-34130000D01*
X60960000Y-30480000D02*
X60528200Y-30480000D01*
X60528200Y-30480000D02*
X58343800Y-32664400D01*
X58343800Y-32664400D02*
X57095600Y-32664400D01*
X57095600Y-32664400D02*
X55630000Y-34130000D01*
X63500000Y-30480000D02*
X63207900Y-30480000D01*
X63207900Y-30480000D02*
X60833000Y-32854900D01*
X60833000Y-32854900D02*
X59445100Y-32854900D01*
X59445100Y-32854900D02*
X58170000Y-34130000D01*
X66040000Y-30480000D02*
X65582800Y-30480000D01*
X65582800Y-30480000D02*
X63144400Y-32918400D01*
X63144400Y-32918400D02*
X61921600Y-32918400D01*
X61921600Y-32918400D02*
X60710000Y-34130000D01*
X68580000Y-30480000D02*
X68008500Y-30480000D01*
X68008500Y-30480000D02*
X65570100Y-32918400D01*
X65570100Y-32918400D02*
X64461600Y-32918400D01*
X64461600Y-32918400D02*
X63250000Y-34130000D01*
D25*
G36*
X115444000Y-78600000D02*
X16638000Y-78600000D01*
X16638000Y-25470000D01*
X17350000Y-25470000D01*
X17350000Y-71970000D01*
X17407852Y-72260839D01*
X17572599Y-72507401D01*
X19172599Y-74107401D01*
X19419161Y-74272148D01*
X19710000Y-74330000D01*
X20435198Y-74330000D01*
X20617758Y-74512560D01*
X19240000Y-74512560D01*
X19004683Y-74556838D01*
X18788559Y-74695910D01*
X18643569Y-74908110D01*
X18592560Y-75160000D01*
X18592560Y-76960000D01*
X18636838Y-77195317D01*
X18775910Y-77411441D01*
X18988110Y-77556431D01*
X19240000Y-77607440D01*
X20640000Y-77607440D01*
X20875317Y-77563162D01*
X21091441Y-77424090D01*
X21236431Y-77211890D01*
X21287440Y-76960000D01*
X21287440Y-75182242D01*
X21892560Y-75787362D01*
X21892560Y-76960000D01*
X21936838Y-77195317D01*
X22075910Y-77411441D01*
X22288110Y-77556431D01*
X22540000Y-77607440D01*
X23940000Y-77607440D01*
X24175317Y-77563162D01*
X24391441Y-77424090D01*
X24536431Y-77211890D01*
X24587440Y-76960000D01*
X24587440Y-75160000D01*
X24543162Y-74924683D01*
X24404090Y-74708559D01*
X24191890Y-74563569D01*
X23940000Y-74512560D01*
X22767362Y-74512560D01*
X22684802Y-74430000D01*
X110705198Y-74430000D01*
X110787758Y-74512560D01*
X109410000Y-74512560D01*
X109174683Y-74556838D01*
X108958559Y-74695910D01*
X108813569Y-74908110D01*
X108762560Y-75160000D01*
X108762560Y-76960000D01*
X108806838Y-77195317D01*
X108945910Y-77411441D01*
X109158110Y-77556431D01*
X109410000Y-77607440D01*
X110810000Y-77607440D01*
X111045317Y-77563162D01*
X111261441Y-77424090D01*
X111406431Y-77211890D01*
X111457440Y-76960000D01*
X111457440Y-75182242D01*
X112062560Y-75787362D01*
X112062560Y-76960000D01*
X112106838Y-77195317D01*
X112245910Y-77411441D01*
X112458110Y-77556431D01*
X112710000Y-77607440D01*
X114110000Y-77607440D01*
X114345317Y-77563162D01*
X114561441Y-77424090D01*
X114706431Y-77211890D01*
X114757440Y-76960000D01*
X114757440Y-75160000D01*
X114713162Y-74924683D01*
X114574090Y-74708559D01*
X114361890Y-74563569D01*
X114110000Y-74512560D01*
X112937362Y-74512560D01*
X111557401Y-73132599D01*
X111310839Y-72967852D01*
X111020000Y-72910000D01*
X22924802Y-72910000D01*
X22809802Y-72795000D01*
X22954250Y-72795000D01*
X23113000Y-72636250D01*
X23113000Y-71387000D01*
X23367000Y-71387000D01*
X23367000Y-72636250D01*
X23525750Y-72795000D01*
X24066309Y-72795000D01*
X24299698Y-72698327D01*
X24478327Y-72519699D01*
X24575000Y-72286310D01*
X24575000Y-71545750D01*
X24416250Y-71387000D01*
X23367000Y-71387000D01*
X23113000Y-71387000D01*
X22063750Y-71387000D01*
X21905000Y-71545750D01*
X21905000Y-71890198D01*
X21287440Y-71272638D01*
X21287440Y-70360000D01*
X21263674Y-70233690D01*
X21905000Y-70233690D01*
X21905000Y-70974250D01*
X22063750Y-71133000D01*
X23113000Y-71133000D01*
X23113000Y-69883750D01*
X23367000Y-69883750D01*
X23367000Y-71133000D01*
X24416250Y-71133000D01*
X24575000Y-70974250D01*
X24575000Y-70233690D01*
X24478327Y-70000301D01*
X24299698Y-69821673D01*
X24066309Y-69725000D01*
X23525750Y-69725000D01*
X23367000Y-69883750D01*
X23113000Y-69883750D01*
X22954250Y-69725000D01*
X22413691Y-69725000D01*
X22180302Y-69821673D01*
X22001673Y-70000301D01*
X21905000Y-70233690D01*
X21263674Y-70233690D01*
X21243162Y-70124683D01*
X21104090Y-69908559D01*
X20891890Y-69763569D01*
X20640000Y-69712560D01*
X19240000Y-69712560D01*
X19004683Y-69756838D01*
X18870000Y-69843504D01*
X18870000Y-65050000D01*
X26662560Y-65050000D01*
X26662560Y-68800000D01*
X26706838Y-69035317D01*
X26845910Y-69251441D01*
X27058110Y-69396431D01*
X27310000Y-69447440D01*
X31060000Y-69447440D01*
X31295317Y-69403162D01*
X31511441Y-69264090D01*
X31656431Y-69051890D01*
X31707440Y-68800000D01*
X31707440Y-65075000D01*
X102912560Y-65075000D01*
X102912560Y-68825000D01*
X102956838Y-69060317D01*
X103095910Y-69276441D01*
X103308110Y-69421431D01*
X103560000Y-69472440D01*
X107310000Y-69472440D01*
X107545317Y-69428162D01*
X107761441Y-69289090D01*
X107906431Y-69076890D01*
X107957440Y-68825000D01*
X107957440Y-65075000D01*
X107913162Y-64839683D01*
X107774090Y-64623559D01*
X107561890Y-64478569D01*
X107310000Y-64427560D01*
X103560000Y-64427560D01*
X103324683Y-64471838D01*
X103108559Y-64610910D01*
X102963569Y-64823110D01*
X102912560Y-65075000D01*
X31707440Y-65075000D01*
X31707440Y-65050000D01*
X31663162Y-64814683D01*
X31524090Y-64598559D01*
X31311890Y-64453569D01*
X31060000Y-64402560D01*
X27310000Y-64402560D01*
X27074683Y-64446838D01*
X26858559Y-64585910D01*
X26713569Y-64798110D01*
X26662560Y-65050000D01*
X18870000Y-65050000D01*
X18870000Y-62502750D01*
X42712000Y-62502750D01*
X42712000Y-63193309D01*
X42808673Y-63426698D01*
X42987301Y-63605327D01*
X43220690Y-63702000D01*
X43911250Y-63702000D01*
X44070000Y-63543250D01*
X44070000Y-62344000D01*
X42870750Y-62344000D01*
X42712000Y-62502750D01*
X18870000Y-62502750D01*
X18870000Y-61240691D01*
X42712000Y-61240691D01*
X42712000Y-61931250D01*
X42870750Y-62090000D01*
X44070000Y-62090000D01*
X44070000Y-60890750D01*
X44324000Y-60890750D01*
X44324000Y-62090000D01*
X44344000Y-62090000D01*
X44344000Y-62344000D01*
X44324000Y-62344000D01*
X44324000Y-63543250D01*
X44482750Y-63702000D01*
X45173310Y-63702000D01*
X45406699Y-63605327D01*
X45585327Y-63426698D01*
X45657597Y-63252223D01*
X45686946Y-63296147D01*
X46168715Y-63618054D01*
X46737000Y-63731093D01*
X47305285Y-63618054D01*
X47787054Y-63296147D01*
X48007000Y-62966974D01*
X48226946Y-63296147D01*
X48708715Y-63618054D01*
X49277000Y-63731093D01*
X49845285Y-63618054D01*
X50327054Y-63296147D01*
X50547000Y-62966974D01*
X50766946Y-63296147D01*
X51248715Y-63618054D01*
X51817000Y-63731093D01*
X52385285Y-63618054D01*
X52867054Y-63296147D01*
X53188961Y-62814378D01*
X53302000Y-62246093D01*
X53302000Y-62187907D01*
X53222852Y-61790000D01*
X71455000Y-61790000D01*
X71455000Y-62230000D01*
X71526173Y-62587809D01*
X71728855Y-62891145D01*
X72032191Y-63093827D01*
X72390000Y-63165000D01*
X72747809Y-63093827D01*
X73051145Y-62891145D01*
X73253827Y-62587809D01*
X73325000Y-62230000D01*
X73995000Y-62230000D01*
X74066173Y-62587809D01*
X74268855Y-62891145D01*
X74572191Y-63093827D01*
X74930000Y-63165000D01*
X79798554Y-63165000D01*
X79826838Y-63315317D01*
X79965910Y-63531441D01*
X80178110Y-63676431D01*
X80430000Y-63727440D01*
X82130000Y-63727440D01*
X82365317Y-63683162D01*
X82581441Y-63544090D01*
X82726431Y-63331890D01*
X82740086Y-63264459D01*
X82769946Y-63309147D01*
X83251715Y-63631054D01*
X83820000Y-63744093D01*
X84388285Y-63631054D01*
X84870054Y-63309147D01*
X85191961Y-62827378D01*
X85305000Y-62259093D01*
X85305000Y-62200907D01*
X85191961Y-61632622D01*
X84870054Y-61150853D01*
X84388285Y-60828946D01*
X83820000Y-60715907D01*
X83251715Y-60828946D01*
X82769946Y-61150853D01*
X82742150Y-61192452D01*
X82733162Y-61144683D01*
X82594090Y-60928559D01*
X82381890Y-60783569D01*
X82130000Y-60732560D01*
X80430000Y-60732560D01*
X80194683Y-60776838D01*
X79978559Y-60915910D01*
X79833569Y-61128110D01*
X79799773Y-61295000D01*
X74930000Y-61295000D01*
X74572191Y-61366173D01*
X74268855Y-61568855D01*
X74066173Y-61872191D01*
X73995000Y-62230000D01*
X73325000Y-62230000D01*
X73325000Y-61790000D01*
X73253827Y-61432191D01*
X73117939Y-61228819D01*
X73092148Y-61099161D01*
X72927401Y-60852599D01*
X72680839Y-60687852D01*
X72390000Y-60630000D01*
X72099161Y-60687852D01*
X71852599Y-60852599D01*
X71687852Y-61099161D01*
X71662061Y-61228819D01*
X71526173Y-61432191D01*
X71455000Y-61790000D01*
X53222852Y-61790000D01*
X53188961Y-61619622D01*
X52867054Y-61137853D01*
X52385285Y-60815946D01*
X51817000Y-60702907D01*
X51248715Y-60815946D01*
X50766946Y-61137853D01*
X50547000Y-61467026D01*
X50327054Y-61137853D01*
X49845285Y-60815946D01*
X49277000Y-60702907D01*
X48708715Y-60815946D01*
X48226946Y-61137853D01*
X48007000Y-61467026D01*
X47787054Y-61137853D01*
X47305285Y-60815946D01*
X46737000Y-60702907D01*
X46168715Y-60815946D01*
X45686946Y-61137853D01*
X45657597Y-61181777D01*
X45585327Y-61007302D01*
X45406699Y-60828673D01*
X45173310Y-60732000D01*
X44482750Y-60732000D01*
X44324000Y-60890750D01*
X44070000Y-60890750D01*
X43911250Y-60732000D01*
X43220690Y-60732000D01*
X42987301Y-60828673D01*
X42808673Y-61007302D01*
X42712000Y-61240691D01*
X18870000Y-61240691D01*
X18870000Y-32800000D01*
X26662560Y-32800000D01*
X26662560Y-36550000D01*
X26706838Y-36785317D01*
X26845910Y-37001441D01*
X27058110Y-37146431D01*
X27310000Y-37197440D01*
X31060000Y-37197440D01*
X31295317Y-37153162D01*
X31511441Y-37014090D01*
X31656431Y-36801890D01*
X31707440Y-36550000D01*
X31707440Y-34379530D01*
X34049782Y-34379530D01*
X34241201Y-34842800D01*
X34595335Y-35197553D01*
X35058271Y-35389781D01*
X35559530Y-35390218D01*
X36022800Y-35198799D01*
X36211049Y-35010878D01*
X37148727Y-35010878D01*
X37201325Y-35238890D01*
X37675056Y-35402717D01*
X38175420Y-35372785D01*
X38498675Y-35238890D01*
X38551273Y-35010878D01*
X37850000Y-34309605D01*
X37148727Y-35010878D01*
X36211049Y-35010878D01*
X36377553Y-34844665D01*
X36569781Y-34381729D01*
X36570152Y-33955056D01*
X36577283Y-33955056D01*
X36607215Y-34455420D01*
X36741110Y-34778675D01*
X36969122Y-34831273D01*
X37670395Y-34130000D01*
X38029605Y-34130000D01*
X38730878Y-34831273D01*
X38958890Y-34778675D01*
X39122717Y-34304944D01*
X39092785Y-33804580D01*
X38958890Y-33481325D01*
X38730878Y-33428727D01*
X38029605Y-34130000D01*
X37670395Y-34130000D01*
X36969122Y-33428727D01*
X36741110Y-33481325D01*
X36577283Y-33955056D01*
X36570152Y-33955056D01*
X36570218Y-33880470D01*
X36378799Y-33417200D01*
X36211015Y-33249122D01*
X37148727Y-33249122D01*
X37850000Y-33950395D01*
X38551273Y-33249122D01*
X38498675Y-33021110D01*
X38024944Y-32857283D01*
X37524580Y-32887215D01*
X37201325Y-33021110D01*
X37148727Y-33249122D01*
X36211015Y-33249122D01*
X36024665Y-33062447D01*
X35561729Y-32870219D01*
X35060470Y-32869782D01*
X34597200Y-33061201D01*
X34242447Y-33415335D01*
X34050219Y-33878271D01*
X34049782Y-34379530D01*
X31707440Y-34379530D01*
X31707440Y-32800000D01*
X31663162Y-32564683D01*
X31524090Y-32348559D01*
X31311890Y-32203569D01*
X31060000Y-32152560D01*
X27310000Y-32152560D01*
X27074683Y-32196838D01*
X26858559Y-32335910D01*
X26713569Y-32548110D01*
X26662560Y-32800000D01*
X18870000Y-32800000D01*
X18870000Y-30485730D01*
X18988110Y-30566431D01*
X19240000Y-30617440D01*
X20640000Y-30617440D01*
X20875317Y-30573162D01*
X21091441Y-30434090D01*
X21236431Y-30221890D01*
X21287440Y-29970000D01*
X21287440Y-28170000D01*
X21892560Y-28170000D01*
X21892560Y-29970000D01*
X21936838Y-30205317D01*
X22075910Y-30421441D01*
X22288110Y-30566431D01*
X22540000Y-30617440D01*
X23940000Y-30617440D01*
X24175317Y-30573162D01*
X24391441Y-30434090D01*
X24536431Y-30221890D01*
X24587440Y-29970000D01*
X24587440Y-28797362D01*
X26147401Y-27237401D01*
X26312148Y-26990839D01*
X26370000Y-26700000D01*
X26370000Y-24384802D01*
X27843123Y-22911679D01*
X27763569Y-23028110D01*
X27712560Y-23280000D01*
X27712560Y-24980000D01*
X27756838Y-25215317D01*
X27895910Y-25431441D01*
X28108110Y-25576431D01*
X28175541Y-25590086D01*
X28130853Y-25619946D01*
X27808946Y-26101715D01*
X27695907Y-26670000D01*
X27808946Y-27238285D01*
X28130853Y-27720054D01*
X28460026Y-27940000D01*
X28130853Y-28159946D01*
X27808946Y-28641715D01*
X27695907Y-29210000D01*
X27808946Y-29778285D01*
X28130853Y-30260054D01*
X28612622Y-30581961D01*
X29180907Y-30695000D01*
X29239093Y-30695000D01*
X29556969Y-30631771D01*
X30732599Y-31807401D01*
X30979161Y-31972148D01*
X31270000Y-32030000D01*
X33610000Y-32030000D01*
X33900839Y-31972148D01*
X34147401Y-31807401D01*
X34267504Y-31687298D01*
X34295910Y-31731441D01*
X34508110Y-31876431D01*
X34760000Y-31927440D01*
X36360000Y-31927440D01*
X36595317Y-31883162D01*
X36811441Y-31744090D01*
X36956431Y-31531890D01*
X36987815Y-31376911D01*
X37085302Y-31522811D01*
X37550849Y-31833880D01*
X38100000Y-31943113D01*
X38649151Y-31833880D01*
X38692807Y-31804710D01*
X39869742Y-32981644D01*
X39677200Y-33061201D01*
X39322447Y-33415335D01*
X39130219Y-33878271D01*
X39129782Y-34379530D01*
X39321201Y-34842800D01*
X39675335Y-35197553D01*
X40138271Y-35389781D01*
X40639530Y-35390218D01*
X41102800Y-35198799D01*
X41457553Y-34844665D01*
X41538301Y-34650204D01*
X41555499Y-34667402D01*
X41802061Y-34832148D01*
X41862586Y-34844187D01*
X42215335Y-35197553D01*
X42678271Y-35389781D01*
X43179530Y-35390218D01*
X43642800Y-35198799D01*
X43997553Y-34844665D01*
X44074574Y-34659177D01*
X44082799Y-34667402D01*
X44329361Y-34832148D01*
X44405732Y-34847339D01*
X44755335Y-35197553D01*
X45218271Y-35389781D01*
X45719530Y-35390218D01*
X46182800Y-35198799D01*
X46537553Y-34844665D01*
X46618301Y-34650204D01*
X46635499Y-34667402D01*
X46882061Y-34832148D01*
X46942586Y-34844187D01*
X47295335Y-35197553D01*
X47758271Y-35389781D01*
X48259530Y-35390218D01*
X48722800Y-35198799D01*
X49077553Y-34844665D01*
X49169479Y-34623282D01*
X49213599Y-34667402D01*
X49460161Y-34832148D01*
X49478290Y-34835754D01*
X49481201Y-34842800D01*
X49835335Y-35197553D01*
X50298271Y-35389781D01*
X50799530Y-35390218D01*
X51262800Y-35198799D01*
X51617553Y-34844665D01*
X51698301Y-34650204D01*
X51715499Y-34667402D01*
X51960751Y-34831273D01*
X51962061Y-34832148D01*
X52022586Y-34844187D01*
X52375335Y-35197553D01*
X52838271Y-35389781D01*
X53339530Y-35390218D01*
X53802800Y-35198799D01*
X54157553Y-34844665D01*
X54349781Y-34381729D01*
X54350218Y-33880470D01*
X54158799Y-33417200D01*
X53804665Y-33062447D01*
X53341729Y-32870219D01*
X52840470Y-32869782D01*
X52377200Y-33061201D01*
X52318000Y-33120297D01*
X50972756Y-31775054D01*
X51149039Y-31871904D01*
X51537423Y-31711041D01*
X51952389Y-31335134D01*
X52055014Y-31118297D01*
X52325302Y-31522811D01*
X52790849Y-31833880D01*
X53340000Y-31943113D01*
X53889151Y-31833880D01*
X54354698Y-31522811D01*
X54610000Y-31140725D01*
X54865302Y-31522811D01*
X55330849Y-31833880D01*
X55880000Y-31943113D01*
X56429151Y-31833880D01*
X56894698Y-31522811D01*
X57150000Y-31140725D01*
X57405302Y-31522811D01*
X57870849Y-31833880D01*
X58061579Y-31871819D01*
X58028998Y-31904400D01*
X57095600Y-31904400D01*
X56804760Y-31962252D01*
X56558199Y-32126999D01*
X55815037Y-32870161D01*
X55380470Y-32869782D01*
X54917200Y-33061201D01*
X54562447Y-33415335D01*
X54370219Y-33878271D01*
X54369782Y-34379530D01*
X54561201Y-34842800D01*
X54915335Y-35197553D01*
X55378271Y-35389781D01*
X55879530Y-35390218D01*
X56342800Y-35198799D01*
X56697553Y-34844665D01*
X56889781Y-34381729D01*
X56890162Y-33944640D01*
X56910179Y-33924623D01*
X56909782Y-34379530D01*
X57101201Y-34842800D01*
X57455335Y-35197553D01*
X57918271Y-35389781D01*
X58419530Y-35390218D01*
X58882800Y-35198799D01*
X59237553Y-34844665D01*
X59429781Y-34381729D01*
X59430162Y-33944640D01*
X59450179Y-33924623D01*
X59449782Y-34379530D01*
X59641201Y-34842800D01*
X59995335Y-35197553D01*
X60458271Y-35389781D01*
X60959530Y-35390218D01*
X61422800Y-35198799D01*
X61777553Y-34844665D01*
X61969781Y-34381729D01*
X61970162Y-33944640D01*
X61990179Y-33924623D01*
X61989782Y-34379530D01*
X62181201Y-34842800D01*
X62535335Y-35197553D01*
X62998271Y-35389781D01*
X63499530Y-35390218D01*
X63962800Y-35198799D01*
X64317553Y-34844665D01*
X64509781Y-34381729D01*
X64510162Y-33944640D01*
X64530179Y-33924623D01*
X64529782Y-34379530D01*
X64721201Y-34842800D01*
X65075335Y-35197553D01*
X65538271Y-35389781D01*
X66039530Y-35390218D01*
X66502800Y-35198799D01*
X66857553Y-34844665D01*
X67049781Y-34381729D01*
X67050162Y-33944640D01*
X67070179Y-33924623D01*
X67069782Y-34379530D01*
X67261201Y-34842800D01*
X67615335Y-35197553D01*
X68078271Y-35389781D01*
X68579530Y-35390218D01*
X69042800Y-35198799D01*
X69397553Y-34844665D01*
X69589781Y-34381729D01*
X69590218Y-33880470D01*
X69398799Y-33417200D01*
X69296540Y-33314762D01*
X69811302Y-32800000D01*
X102912560Y-32800000D01*
X102912560Y-36550000D01*
X102956838Y-36785317D01*
X103095910Y-37001441D01*
X103308110Y-37146431D01*
X103560000Y-37197440D01*
X107310000Y-37197440D01*
X107545317Y-37153162D01*
X107761441Y-37014090D01*
X107906431Y-36801890D01*
X107957440Y-36550000D01*
X107957440Y-32800000D01*
X107913162Y-32564683D01*
X107774090Y-32348559D01*
X107561890Y-32203569D01*
X107310000Y-32152560D01*
X103560000Y-32152560D01*
X103324683Y-32196838D01*
X103108559Y-32335910D01*
X102963569Y-32548110D01*
X102912560Y-32800000D01*
X69811302Y-32800000D01*
X70577901Y-32033401D01*
X70742648Y-31786840D01*
X70800500Y-31496000D01*
X70800500Y-29908500D01*
X70742648Y-29617661D01*
X70577901Y-29371099D01*
X69340000Y-28133198D01*
X69340000Y-26974802D01*
X72172599Y-29807401D01*
X72419161Y-29972148D01*
X72710000Y-30030000D01*
X76710000Y-30030000D01*
X77000839Y-29972148D01*
X77247401Y-29807401D01*
X79624802Y-27430000D01*
X86706253Y-27430000D01*
X86856218Y-27792943D01*
X87414120Y-28351819D01*
X88143427Y-28654654D01*
X88933109Y-28655343D01*
X89662943Y-28353782D01*
X90221819Y-27795880D01*
X90524654Y-27066573D01*
X90525343Y-26276891D01*
X90223782Y-25547057D01*
X89665880Y-24988181D01*
X88936573Y-24685346D01*
X88710000Y-24685148D01*
X88710000Y-23973991D01*
X94064735Y-23973991D01*
X94297932Y-24538371D01*
X94729357Y-24970551D01*
X95293330Y-25204733D01*
X95903991Y-25205265D01*
X96248643Y-25062858D01*
X96215241Y-25143298D01*
X96214760Y-25694285D01*
X96425169Y-26203515D01*
X96665000Y-26443764D01*
X96665000Y-26896390D01*
X96426539Y-27134436D01*
X96215241Y-27643298D01*
X96214760Y-28194285D01*
X96249131Y-28277469D01*
X95906670Y-28135267D01*
X95296009Y-28134735D01*
X94731629Y-28367932D01*
X94299449Y-28799357D01*
X94065267Y-29363330D01*
X94064735Y-29973991D01*
X94297932Y-30538371D01*
X94729357Y-30970551D01*
X95293330Y-31204733D01*
X95903991Y-31205265D01*
X96468371Y-30972068D01*
X96900551Y-30540643D01*
X97134733Y-29976670D01*
X97135265Y-29366009D01*
X97065773Y-29197825D01*
X97323298Y-29304759D01*
X97874285Y-29305240D01*
X98383515Y-29094831D01*
X98773461Y-28705564D01*
X98984759Y-28196702D01*
X98985240Y-27645715D01*
X98774831Y-27136485D01*
X98535000Y-26896236D01*
X98535000Y-26443610D01*
X98773461Y-26205564D01*
X98984759Y-25696702D01*
X98984761Y-25694285D01*
X100214760Y-25694285D01*
X100425169Y-26203515D01*
X100665000Y-26443764D01*
X100665000Y-26896390D01*
X100426539Y-27134436D01*
X100215241Y-27643298D01*
X100214760Y-28194285D01*
X100425169Y-28703515D01*
X100814436Y-29093461D01*
X101323298Y-29304759D01*
X101874285Y-29305240D01*
X102383515Y-29094831D01*
X102773461Y-28705564D01*
X102984759Y-28196702D01*
X102985240Y-27645715D01*
X102774831Y-27136485D01*
X102535000Y-26896236D01*
X102535000Y-26443610D01*
X102773461Y-26205564D01*
X102984759Y-25696702D01*
X102984761Y-25694285D01*
X104214760Y-25694285D01*
X104425169Y-26203515D01*
X104665000Y-26443764D01*
X104665000Y-26896390D01*
X104426539Y-27134436D01*
X104215241Y-27643298D01*
X104214760Y-28194285D01*
X104425169Y-28703515D01*
X104814436Y-29093461D01*
X105323298Y-29304759D01*
X105874285Y-29305240D01*
X106133937Y-29197954D01*
X106065267Y-29363330D01*
X106064735Y-29973991D01*
X106297932Y-30538371D01*
X106729357Y-30970551D01*
X107293330Y-31204733D01*
X107903991Y-31205265D01*
X108468371Y-30972068D01*
X108900551Y-30540643D01*
X108949133Y-30423643D01*
X109158110Y-30566431D01*
X109410000Y-30617440D01*
X110787758Y-30617440D01*
X109572599Y-31832599D01*
X109407852Y-32079161D01*
X109350000Y-32370000D01*
X109350000Y-69723850D01*
X109174683Y-69756838D01*
X108958559Y-69895910D01*
X108813569Y-70108110D01*
X108762560Y-70360000D01*
X108762560Y-72160000D01*
X108806838Y-72395317D01*
X108945910Y-72611441D01*
X109158110Y-72756431D01*
X109410000Y-72807440D01*
X110810000Y-72807440D01*
X111045317Y-72763162D01*
X111261441Y-72624090D01*
X111406431Y-72411890D01*
X111457440Y-72160000D01*
X111457440Y-71545750D01*
X112075000Y-71545750D01*
X112075000Y-72286310D01*
X112171673Y-72519699D01*
X112350302Y-72698327D01*
X112583691Y-72795000D01*
X113124250Y-72795000D01*
X113283000Y-72636250D01*
X113283000Y-71387000D01*
X113537000Y-71387000D01*
X113537000Y-72636250D01*
X113695750Y-72795000D01*
X114236309Y-72795000D01*
X114469698Y-72698327D01*
X114648327Y-72519699D01*
X114745000Y-72286310D01*
X114745000Y-71545750D01*
X114586250Y-71387000D01*
X113537000Y-71387000D01*
X113283000Y-71387000D01*
X112233750Y-71387000D01*
X112075000Y-71545750D01*
X111457440Y-71545750D01*
X111457440Y-70360000D01*
X111433674Y-70233690D01*
X112075000Y-70233690D01*
X112075000Y-70974250D01*
X112233750Y-71133000D01*
X113283000Y-71133000D01*
X113283000Y-69883750D01*
X113537000Y-69883750D01*
X113537000Y-71133000D01*
X114586250Y-71133000D01*
X114745000Y-70974250D01*
X114745000Y-70233690D01*
X114648327Y-70000301D01*
X114469698Y-69821673D01*
X114236309Y-69725000D01*
X113695750Y-69725000D01*
X113537000Y-69883750D01*
X113283000Y-69883750D01*
X113124250Y-69725000D01*
X112583691Y-69725000D01*
X112350302Y-69821673D01*
X112171673Y-70000301D01*
X112075000Y-70233690D01*
X111433674Y-70233690D01*
X111413162Y-70124683D01*
X111274090Y-69908559D01*
X111061890Y-69763569D01*
X110870000Y-69724710D01*
X110870000Y-32684802D01*
X112937362Y-30617440D01*
X114110000Y-30617440D01*
X114345317Y-30573162D01*
X114561441Y-30434090D01*
X114706431Y-30221890D01*
X114757440Y-29970000D01*
X114757440Y-28170000D01*
X114713162Y-27934683D01*
X114574090Y-27718559D01*
X114361890Y-27573569D01*
X114110000Y-27522560D01*
X112710000Y-27522560D01*
X112474683Y-27566838D01*
X112258559Y-27705910D01*
X112113569Y-27918110D01*
X112062560Y-28170000D01*
X112062560Y-29342638D01*
X111457440Y-29947758D01*
X111457440Y-28170000D01*
X111413162Y-27934683D01*
X111274090Y-27718559D01*
X111061890Y-27573569D01*
X110810000Y-27522560D01*
X109410000Y-27522560D01*
X109174683Y-27566838D01*
X108958559Y-27705910D01*
X108813569Y-27918110D01*
X108762560Y-28170000D01*
X108762560Y-28661877D01*
X108470643Y-28369449D01*
X107906670Y-28135267D01*
X107296009Y-28134735D01*
X106951357Y-28277142D01*
X106984759Y-28196702D01*
X106985240Y-27645715D01*
X106774831Y-27136485D01*
X106535000Y-26896236D01*
X106535000Y-26443610D01*
X106773461Y-26205564D01*
X106984759Y-25696702D01*
X106985240Y-25145715D01*
X106950869Y-25062531D01*
X107293330Y-25204733D01*
X107903991Y-25205265D01*
X108468371Y-24972068D01*
X108762560Y-24678393D01*
X108762560Y-25170000D01*
X108806838Y-25405317D01*
X108945910Y-25621441D01*
X109158110Y-25766431D01*
X109410000Y-25817440D01*
X110810000Y-25817440D01*
X111045317Y-25773162D01*
X111261441Y-25634090D01*
X111406431Y-25421890D01*
X111457440Y-25170000D01*
X111457440Y-24555750D01*
X112075000Y-24555750D01*
X112075000Y-25296310D01*
X112171673Y-25529699D01*
X112350302Y-25708327D01*
X112583691Y-25805000D01*
X113124250Y-25805000D01*
X113283000Y-25646250D01*
X113283000Y-24397000D01*
X113537000Y-24397000D01*
X113537000Y-25646250D01*
X113695750Y-25805000D01*
X114236309Y-25805000D01*
X114469698Y-25708327D01*
X114648327Y-25529699D01*
X114745000Y-25296310D01*
X114745000Y-24555750D01*
X114586250Y-24397000D01*
X113537000Y-24397000D01*
X113283000Y-24397000D01*
X112233750Y-24397000D01*
X112075000Y-24555750D01*
X111457440Y-24555750D01*
X111457440Y-23370000D01*
X111433674Y-23243690D01*
X112075000Y-23243690D01*
X112075000Y-23984250D01*
X112233750Y-24143000D01*
X113283000Y-24143000D01*
X113283000Y-22893750D01*
X113537000Y-22893750D01*
X113537000Y-24143000D01*
X114586250Y-24143000D01*
X114745000Y-23984250D01*
X114745000Y-23243690D01*
X114648327Y-23010301D01*
X114469698Y-22831673D01*
X114236309Y-22735000D01*
X113695750Y-22735000D01*
X113537000Y-22893750D01*
X113283000Y-22893750D01*
X113124250Y-22735000D01*
X112583691Y-22735000D01*
X112350302Y-22831673D01*
X112171673Y-23010301D01*
X112075000Y-23243690D01*
X111433674Y-23243690D01*
X111413162Y-23134683D01*
X111274090Y-22918559D01*
X111061890Y-22773569D01*
X110810000Y-22722560D01*
X109410000Y-22722560D01*
X109174683Y-22766838D01*
X108958559Y-22905910D01*
X108950207Y-22918134D01*
X108902068Y-22801629D01*
X108470643Y-22369449D01*
X107906670Y-22135267D01*
X107296009Y-22134735D01*
X106731629Y-22367932D01*
X106299449Y-22799357D01*
X106065267Y-23363330D01*
X106064735Y-23973991D01*
X106134227Y-24142175D01*
X105876702Y-24035241D01*
X105325715Y-24034760D01*
X104816485Y-24245169D01*
X104426539Y-24634436D01*
X104215241Y-25143298D01*
X104214760Y-25694285D01*
X102984761Y-25694285D01*
X102985240Y-25145715D01*
X102774831Y-24636485D01*
X102385564Y-24246539D01*
X101876702Y-24035241D01*
X101325715Y-24034760D01*
X100816485Y-24245169D01*
X100426539Y-24634436D01*
X100215241Y-25143298D01*
X100214760Y-25694285D01*
X98984761Y-25694285D01*
X98985240Y-25145715D01*
X98774831Y-24636485D01*
X98385564Y-24246539D01*
X97876702Y-24035241D01*
X97325715Y-24034760D01*
X97066063Y-24142046D01*
X97134733Y-23976670D01*
X97135265Y-23366009D01*
X96902068Y-22801629D01*
X96470643Y-22369449D01*
X95906670Y-22135267D01*
X95296009Y-22134735D01*
X94731629Y-22367932D01*
X94299449Y-22799357D01*
X94065267Y-23363330D01*
X94064735Y-23973991D01*
X88710000Y-23973991D01*
X88710000Y-21312334D01*
X88785317Y-21298162D01*
X88899978Y-21224380D01*
X88998110Y-21291431D01*
X89250000Y-21342440D01*
X90450000Y-21342440D01*
X90685317Y-21298162D01*
X90901441Y-21159090D01*
X91046431Y-20946890D01*
X91097440Y-20695000D01*
X91097440Y-19945000D01*
X91053162Y-19709683D01*
X90914090Y-19493559D01*
X90701890Y-19348569D01*
X90450000Y-19297560D01*
X89250000Y-19297560D01*
X89014683Y-19341838D01*
X88900022Y-19415620D01*
X88801890Y-19348569D01*
X88550000Y-19297560D01*
X87350000Y-19297560D01*
X87114683Y-19341838D01*
X86898559Y-19480910D01*
X86753569Y-19693110D01*
X86702560Y-19945000D01*
X86702560Y-20695000D01*
X86746838Y-20930317D01*
X86885910Y-21146441D01*
X87098110Y-21291431D01*
X87190000Y-21310039D01*
X87190000Y-25212879D01*
X86858181Y-25544120D01*
X86706254Y-25910000D01*
X79310000Y-25910000D01*
X79019160Y-25967852D01*
X78772599Y-26132599D01*
X78184956Y-26720242D01*
X78185343Y-26276891D01*
X77883782Y-25547057D01*
X77325880Y-24988181D01*
X76596573Y-24685346D01*
X76010000Y-24684834D01*
X76010000Y-21312334D01*
X76085317Y-21298162D01*
X76199978Y-21224380D01*
X76298110Y-21291431D01*
X76550000Y-21342440D01*
X77750000Y-21342440D01*
X77985317Y-21298162D01*
X78201441Y-21159090D01*
X78346431Y-20946890D01*
X78397440Y-20695000D01*
X78397440Y-19945000D01*
X78353162Y-19709683D01*
X78214090Y-19493559D01*
X78001890Y-19348569D01*
X77750000Y-19297560D01*
X76550000Y-19297560D01*
X76314683Y-19341838D01*
X76200022Y-19415620D01*
X76101890Y-19348569D01*
X75850000Y-19297560D01*
X74650000Y-19297560D01*
X74414683Y-19341838D01*
X74198559Y-19480910D01*
X74053569Y-19693110D01*
X74002560Y-19945000D01*
X74002560Y-20695000D01*
X74046838Y-20930317D01*
X74185910Y-21146441D01*
X74398110Y-21291431D01*
X74490000Y-21310039D01*
X74490000Y-25611987D01*
X74366254Y-25910000D01*
X71824802Y-25910000D01*
X70345122Y-24430320D01*
X70345162Y-24384833D01*
X70203117Y-24041057D01*
X69940327Y-23777808D01*
X69735150Y-23692611D01*
X69905767Y-23437264D01*
X70015000Y-22888113D01*
X70015000Y-22831887D01*
X69905767Y-22282736D01*
X69594698Y-21817189D01*
X69129151Y-21506120D01*
X68580000Y-21396887D01*
X68030849Y-21506120D01*
X67565302Y-21817189D01*
X67310000Y-22199275D01*
X67054698Y-21817189D01*
X66589151Y-21506120D01*
X66040000Y-21396887D01*
X65490849Y-21506120D01*
X65025302Y-21817189D01*
X64770000Y-22199275D01*
X64514698Y-21817189D01*
X64049151Y-21506120D01*
X63500000Y-21396887D01*
X62950849Y-21506120D01*
X62485302Y-21817189D01*
X62230000Y-22199275D01*
X61974698Y-21817189D01*
X61509151Y-21506120D01*
X60960000Y-21396887D01*
X60410849Y-21506120D01*
X59945302Y-21817189D01*
X59690000Y-22199275D01*
X59434698Y-21817189D01*
X58969151Y-21506120D01*
X58420000Y-21396887D01*
X57870849Y-21506120D01*
X57405302Y-21817189D01*
X57135014Y-22221703D01*
X57032389Y-22004866D01*
X56617423Y-21628959D01*
X56229039Y-21468096D01*
X56007000Y-21590085D01*
X56007000Y-22733000D01*
X56027000Y-22733000D01*
X56027000Y-22987000D01*
X56007000Y-22987000D01*
X56007000Y-24129915D01*
X56229039Y-24251904D01*
X56617423Y-24091041D01*
X57032389Y-23715134D01*
X57135014Y-23498297D01*
X57405302Y-23902811D01*
X57870849Y-24213880D01*
X58420000Y-24323113D01*
X58969151Y-24213880D01*
X59434698Y-23902811D01*
X59690000Y-23520725D01*
X59945302Y-23902811D01*
X60105721Y-24010000D01*
X60010000Y-24010000D01*
X59719161Y-24067852D01*
X59472599Y-24232599D01*
X55342599Y-28362599D01*
X55177852Y-28609161D01*
X55120000Y-28900000D01*
X55120000Y-29267005D01*
X54865302Y-29437189D01*
X54610000Y-29819275D01*
X54354698Y-29437189D01*
X53889151Y-29126120D01*
X53340000Y-29016887D01*
X52790849Y-29126120D01*
X52325302Y-29437189D01*
X52055014Y-29841703D01*
X51952389Y-29624866D01*
X51537423Y-29248959D01*
X51149039Y-29088096D01*
X50927000Y-29210085D01*
X50927000Y-30353000D01*
X50947000Y-30353000D01*
X50947000Y-30607000D01*
X50927000Y-30607000D01*
X50927000Y-30627000D01*
X50673000Y-30627000D01*
X50673000Y-30607000D01*
X50653000Y-30607000D01*
X50653000Y-30353000D01*
X50673000Y-30353000D01*
X50673000Y-29210085D01*
X50450961Y-29088096D01*
X50062577Y-29248959D01*
X49647611Y-29624866D01*
X49544986Y-29841703D01*
X49274698Y-29437189D01*
X48809151Y-29126120D01*
X48260000Y-29016887D01*
X47710849Y-29126120D01*
X47245302Y-29437189D01*
X46990000Y-29819275D01*
X46734698Y-29437189D01*
X46269151Y-29126120D01*
X45720000Y-29016887D01*
X45170849Y-29126120D01*
X44705302Y-29437189D01*
X44450000Y-29819275D01*
X44194698Y-29437189D01*
X43729151Y-29126120D01*
X43180000Y-29016887D01*
X42630849Y-29126120D01*
X42165302Y-29437189D01*
X41910000Y-29819275D01*
X41654698Y-29437189D01*
X41189151Y-29126120D01*
X40640000Y-29016887D01*
X40090849Y-29126120D01*
X39625302Y-29437189D01*
X39370000Y-29819275D01*
X39114698Y-29437189D01*
X38649151Y-29126120D01*
X38100000Y-29016887D01*
X37550849Y-29126120D01*
X37085302Y-29437189D01*
X36988899Y-29581465D01*
X36963162Y-29444683D01*
X36824090Y-29228559D01*
X36611890Y-29083569D01*
X36360000Y-29032560D01*
X34760000Y-29032560D01*
X34524683Y-29076838D01*
X34308559Y-29215910D01*
X34163569Y-29428110D01*
X34112560Y-29680000D01*
X34112560Y-29777176D01*
X34109161Y-29777852D01*
X33862599Y-29942599D01*
X33295198Y-30510000D01*
X32455075Y-30510000D01*
X32829147Y-30260054D01*
X33151054Y-29778285D01*
X33264093Y-29210000D01*
X33168615Y-28730000D01*
X35310000Y-28730000D01*
X35600839Y-28672148D01*
X35847401Y-28507401D01*
X35949680Y-28405122D01*
X35995167Y-28405162D01*
X36338943Y-28263117D01*
X36602192Y-28000327D01*
X36744838Y-27656799D01*
X36745162Y-27284833D01*
X36603117Y-26941057D01*
X36340327Y-26677808D01*
X35996799Y-26535162D01*
X35624833Y-26534838D01*
X35281057Y-26676883D01*
X35017808Y-26939673D01*
X34905558Y-27210000D01*
X33156680Y-27210000D01*
X33264093Y-26670000D01*
X33151054Y-26101715D01*
X32829147Y-25619946D01*
X32488447Y-25392298D01*
X32631358Y-25325183D01*
X33021645Y-24896924D01*
X33191476Y-24486890D01*
X33070155Y-24257000D01*
X31877000Y-24257000D01*
X31877000Y-24277000D01*
X31623000Y-24277000D01*
X31623000Y-24257000D01*
X31603000Y-24257000D01*
X31603000Y-24003000D01*
X31623000Y-24003000D01*
X31623000Y-22809181D01*
X31877000Y-22809181D01*
X31877000Y-24003000D01*
X33070155Y-24003000D01*
X33191476Y-23773110D01*
X33021645Y-23363076D01*
X32631358Y-22934817D01*
X32106892Y-22688514D01*
X31877000Y-22809181D01*
X31623000Y-22809181D01*
X31393108Y-22688514D01*
X30868642Y-22934817D01*
X30681192Y-23140504D01*
X30663162Y-23044683D01*
X30524090Y-22828559D01*
X30311890Y-22683569D01*
X30060000Y-22632560D01*
X28360000Y-22632560D01*
X28124683Y-22676838D01*
X27993640Y-22761162D01*
X28824802Y-21930000D01*
X34469924Y-21930000D01*
X34234233Y-22282736D01*
X34125000Y-22831887D01*
X34125000Y-22888113D01*
X34234233Y-23437264D01*
X34545302Y-23902811D01*
X35010849Y-24213880D01*
X35560000Y-24323113D01*
X36109151Y-24213880D01*
X36574698Y-23902811D01*
X36830000Y-23520725D01*
X37085302Y-23902811D01*
X37550849Y-24213880D01*
X38100000Y-24323113D01*
X38649151Y-24213880D01*
X39114698Y-23902811D01*
X39370000Y-23520725D01*
X39625302Y-23902811D01*
X40090849Y-24213880D01*
X40640000Y-24323113D01*
X41189151Y-24213880D01*
X41654698Y-23902811D01*
X41910000Y-23520725D01*
X42165302Y-23902811D01*
X42630849Y-24213880D01*
X43180000Y-24323113D01*
X43729151Y-24213880D01*
X44194698Y-23902811D01*
X44450000Y-23520725D01*
X44705302Y-23902811D01*
X45170849Y-24213880D01*
X45720000Y-24323113D01*
X46269151Y-24213880D01*
X46734698Y-23902811D01*
X46990000Y-23520725D01*
X47245302Y-23902811D01*
X47710849Y-24213880D01*
X48260000Y-24323113D01*
X48809151Y-24213880D01*
X49274698Y-23902811D01*
X49530000Y-23520725D01*
X49785302Y-23902811D01*
X50250849Y-24213880D01*
X50800000Y-24323113D01*
X51349151Y-24213880D01*
X51814698Y-23902811D01*
X52084986Y-23498297D01*
X52187611Y-23715134D01*
X52602577Y-24091041D01*
X52990961Y-24251904D01*
X53213000Y-24129915D01*
X53213000Y-22987000D01*
X53467000Y-22987000D01*
X53467000Y-24129915D01*
X53689039Y-24251904D01*
X54077423Y-24091041D01*
X54492389Y-23715134D01*
X54610000Y-23466633D01*
X54727611Y-23715134D01*
X55142577Y-24091041D01*
X55530961Y-24251904D01*
X55753000Y-24129915D01*
X55753000Y-22987000D01*
X53467000Y-22987000D01*
X53213000Y-22987000D01*
X53193000Y-22987000D01*
X53193000Y-22733000D01*
X53213000Y-22733000D01*
X53213000Y-21590085D01*
X53467000Y-21590085D01*
X53467000Y-22733000D01*
X55753000Y-22733000D01*
X55753000Y-21590085D01*
X55530961Y-21468096D01*
X55142577Y-21628959D01*
X54727611Y-22004866D01*
X54610000Y-22253367D01*
X54492389Y-22004866D01*
X54077423Y-21628959D01*
X53689039Y-21468096D01*
X53467000Y-21590085D01*
X53213000Y-21590085D01*
X52990961Y-21468096D01*
X52602577Y-21628959D01*
X52187611Y-22004866D01*
X52084986Y-22221703D01*
X51814698Y-21817189D01*
X51349151Y-21506120D01*
X50800000Y-21396887D01*
X50250849Y-21506120D01*
X49785302Y-21817189D01*
X49530000Y-22199275D01*
X49274698Y-21817189D01*
X48809151Y-21506120D01*
X48449354Y-21434552D01*
X47647401Y-20632599D01*
X47400839Y-20467852D01*
X47110000Y-20410000D01*
X28510000Y-20410000D01*
X28219160Y-20467852D01*
X27972599Y-20632599D01*
X25072599Y-23532599D01*
X24907852Y-23779161D01*
X24850000Y-24070000D01*
X24850000Y-26385198D01*
X23712638Y-27522560D01*
X22540000Y-27522560D01*
X22304683Y-27566838D01*
X22088559Y-27705910D01*
X21943569Y-27918110D01*
X21892560Y-28170000D01*
X21287440Y-28170000D01*
X21243162Y-27934683D01*
X21104090Y-27718559D01*
X20891890Y-27573569D01*
X20640000Y-27522560D01*
X19240000Y-27522560D01*
X19004683Y-27566838D01*
X18870000Y-27653504D01*
X18870000Y-25784802D01*
X18928857Y-25725945D01*
X18988110Y-25766431D01*
X19240000Y-25817440D01*
X20640000Y-25817440D01*
X20875317Y-25773162D01*
X21091441Y-25634090D01*
X21236431Y-25421890D01*
X21287440Y-25170000D01*
X21287440Y-24555750D01*
X21905000Y-24555750D01*
X21905000Y-25296310D01*
X22001673Y-25529699D01*
X22180302Y-25708327D01*
X22413691Y-25805000D01*
X22954250Y-25805000D01*
X23113000Y-25646250D01*
X23113000Y-24397000D01*
X23367000Y-24397000D01*
X23367000Y-25646250D01*
X23525750Y-25805000D01*
X24066309Y-25805000D01*
X24299698Y-25708327D01*
X24478327Y-25529699D01*
X24575000Y-25296310D01*
X24575000Y-24555750D01*
X24416250Y-24397000D01*
X23367000Y-24397000D01*
X23113000Y-24397000D01*
X22063750Y-24397000D01*
X21905000Y-24555750D01*
X21287440Y-24555750D01*
X21287440Y-23370000D01*
X21263674Y-23243690D01*
X21905000Y-23243690D01*
X21905000Y-23984250D01*
X22063750Y-24143000D01*
X23113000Y-24143000D01*
X23113000Y-22893750D01*
X23367000Y-22893750D01*
X23367000Y-24143000D01*
X24416250Y-24143000D01*
X24575000Y-23984250D01*
X24575000Y-23243690D01*
X24478327Y-23010301D01*
X24299698Y-22831673D01*
X24066309Y-22735000D01*
X23525750Y-22735000D01*
X23367000Y-22893750D01*
X23113000Y-22893750D01*
X22954250Y-22735000D01*
X22413691Y-22735000D01*
X22180302Y-22831673D01*
X22001673Y-23010301D01*
X21905000Y-23243690D01*
X21263674Y-23243690D01*
X21243162Y-23134683D01*
X21104090Y-22918559D01*
X20891890Y-22773569D01*
X20640000Y-22722560D01*
X19240000Y-22722560D01*
X19004683Y-22766838D01*
X18788559Y-22905910D01*
X18643569Y-23118110D01*
X18592560Y-23370000D01*
X18592560Y-23912638D01*
X17572599Y-24932599D01*
X17407852Y-25179161D01*
X17350000Y-25470000D01*
X16638000Y-25470000D01*
X16638000Y-19945000D01*
X49872560Y-19945000D01*
X49872560Y-20695000D01*
X49916838Y-20930317D01*
X50055910Y-21146441D01*
X50268110Y-21291431D01*
X50520000Y-21342440D01*
X51720000Y-21342440D01*
X51955317Y-21298162D01*
X52058646Y-21231671D01*
X52060302Y-21233327D01*
X52293691Y-21330000D01*
X52734250Y-21330000D01*
X52893000Y-21171250D01*
X52893000Y-20447000D01*
X53147000Y-20447000D01*
X53147000Y-21171250D01*
X53305750Y-21330000D01*
X53746309Y-21330000D01*
X53979698Y-21233327D01*
X54158327Y-21054699D01*
X54255000Y-20821310D01*
X54255000Y-20605750D01*
X54096250Y-20447000D01*
X53147000Y-20447000D01*
X52893000Y-20447000D01*
X52873000Y-20447000D01*
X52873000Y-20193000D01*
X52893000Y-20193000D01*
X52893000Y-19468750D01*
X53147000Y-19468750D01*
X53147000Y-20193000D01*
X54096250Y-20193000D01*
X54255000Y-20034250D01*
X54255000Y-19818690D01*
X54158327Y-19585301D01*
X53979698Y-19406673D01*
X53746309Y-19310000D01*
X53305750Y-19310000D01*
X53147000Y-19468750D01*
X52893000Y-19468750D01*
X52734250Y-19310000D01*
X52293691Y-19310000D01*
X52060302Y-19406673D01*
X52058932Y-19408043D01*
X51971890Y-19348569D01*
X51720000Y-19297560D01*
X50520000Y-19297560D01*
X50284683Y-19341838D01*
X50068559Y-19480910D01*
X49923569Y-19693110D01*
X49872560Y-19945000D01*
X16638000Y-19945000D01*
X16638000Y-17894000D01*
X115444000Y-17894000D01*
X115444000Y-78600000D01*
X115444000Y-78600000D01*
G37*
X115444000Y-78600000D02*
X16638000Y-78600000D01*
X16638000Y-25470000D01*
X17350000Y-25470000D01*
X17350000Y-71970000D01*
X17407852Y-72260839D01*
X17572599Y-72507401D01*
X19172599Y-74107401D01*
X19419161Y-74272148D01*
X19710000Y-74330000D01*
X20435198Y-74330000D01*
X20617758Y-74512560D01*
X19240000Y-74512560D01*
X19004683Y-74556838D01*
X18788559Y-74695910D01*
X18643569Y-74908110D01*
X18592560Y-75160000D01*
X18592560Y-76960000D01*
X18636838Y-77195317D01*
X18775910Y-77411441D01*
X18988110Y-77556431D01*
X19240000Y-77607440D01*
X20640000Y-77607440D01*
X20875317Y-77563162D01*
X21091441Y-77424090D01*
X21236431Y-77211890D01*
X21287440Y-76960000D01*
X21287440Y-75182242D01*
X21892560Y-75787362D01*
X21892560Y-76960000D01*
X21936838Y-77195317D01*
X22075910Y-77411441D01*
X22288110Y-77556431D01*
X22540000Y-77607440D01*
X23940000Y-77607440D01*
X24175317Y-77563162D01*
X24391441Y-77424090D01*
X24536431Y-77211890D01*
X24587440Y-76960000D01*
X24587440Y-75160000D01*
X24543162Y-74924683D01*
X24404090Y-74708559D01*
X24191890Y-74563569D01*
X23940000Y-74512560D01*
X22767362Y-74512560D01*
X22684802Y-74430000D01*
X110705198Y-74430000D01*
X110787758Y-74512560D01*
X109410000Y-74512560D01*
X109174683Y-74556838D01*
X108958559Y-74695910D01*
X108813569Y-74908110D01*
X108762560Y-75160000D01*
X108762560Y-76960000D01*
X108806838Y-77195317D01*
X108945910Y-77411441D01*
X109158110Y-77556431D01*
X109410000Y-77607440D01*
X110810000Y-77607440D01*
X111045317Y-77563162D01*
X111261441Y-77424090D01*
X111406431Y-77211890D01*
X111457440Y-76960000D01*
X111457440Y-75182242D01*
X112062560Y-75787362D01*
X112062560Y-76960000D01*
X112106838Y-77195317D01*
X112245910Y-77411441D01*
X112458110Y-77556431D01*
X112710000Y-77607440D01*
X114110000Y-77607440D01*
X114345317Y-77563162D01*
X114561441Y-77424090D01*
X114706431Y-77211890D01*
X114757440Y-76960000D01*
X114757440Y-75160000D01*
X114713162Y-74924683D01*
X114574090Y-74708559D01*
X114361890Y-74563569D01*
X114110000Y-74512560D01*
X112937362Y-74512560D01*
X111557401Y-73132599D01*
X111310839Y-72967852D01*
X111020000Y-72910000D01*
X22924802Y-72910000D01*
X22809802Y-72795000D01*
X22954250Y-72795000D01*
X23113000Y-72636250D01*
X23113000Y-71387000D01*
X23367000Y-71387000D01*
X23367000Y-72636250D01*
X23525750Y-72795000D01*
X24066309Y-72795000D01*
X24299698Y-72698327D01*
X24478327Y-72519699D01*
X24575000Y-72286310D01*
X24575000Y-71545750D01*
X24416250Y-71387000D01*
X23367000Y-71387000D01*
X23113000Y-71387000D01*
X22063750Y-71387000D01*
X21905000Y-71545750D01*
X21905000Y-71890198D01*
X21287440Y-71272638D01*
X21287440Y-70360000D01*
X21263674Y-70233690D01*
X21905000Y-70233690D01*
X21905000Y-70974250D01*
X22063750Y-71133000D01*
X23113000Y-71133000D01*
X23113000Y-69883750D01*
X23367000Y-69883750D01*
X23367000Y-71133000D01*
X24416250Y-71133000D01*
X24575000Y-70974250D01*
X24575000Y-70233690D01*
X24478327Y-70000301D01*
X24299698Y-69821673D01*
X24066309Y-69725000D01*
X23525750Y-69725000D01*
X23367000Y-69883750D01*
X23113000Y-69883750D01*
X22954250Y-69725000D01*
X22413691Y-69725000D01*
X22180302Y-69821673D01*
X22001673Y-70000301D01*
X21905000Y-70233690D01*
X21263674Y-70233690D01*
X21243162Y-70124683D01*
X21104090Y-69908559D01*
X20891890Y-69763569D01*
X20640000Y-69712560D01*
X19240000Y-69712560D01*
X19004683Y-69756838D01*
X18870000Y-69843504D01*
X18870000Y-65050000D01*
X26662560Y-65050000D01*
X26662560Y-68800000D01*
X26706838Y-69035317D01*
X26845910Y-69251441D01*
X27058110Y-69396431D01*
X27310000Y-69447440D01*
X31060000Y-69447440D01*
X31295317Y-69403162D01*
X31511441Y-69264090D01*
X31656431Y-69051890D01*
X31707440Y-68800000D01*
X31707440Y-65075000D01*
X102912560Y-65075000D01*
X102912560Y-68825000D01*
X102956838Y-69060317D01*
X103095910Y-69276441D01*
X103308110Y-69421431D01*
X103560000Y-69472440D01*
X107310000Y-69472440D01*
X107545317Y-69428162D01*
X107761441Y-69289090D01*
X107906431Y-69076890D01*
X107957440Y-68825000D01*
X107957440Y-65075000D01*
X107913162Y-64839683D01*
X107774090Y-64623559D01*
X107561890Y-64478569D01*
X107310000Y-64427560D01*
X103560000Y-64427560D01*
X103324683Y-64471838D01*
X103108559Y-64610910D01*
X102963569Y-64823110D01*
X102912560Y-65075000D01*
X31707440Y-65075000D01*
X31707440Y-65050000D01*
X31663162Y-64814683D01*
X31524090Y-64598559D01*
X31311890Y-64453569D01*
X31060000Y-64402560D01*
X27310000Y-64402560D01*
X27074683Y-64446838D01*
X26858559Y-64585910D01*
X26713569Y-64798110D01*
X26662560Y-65050000D01*
X18870000Y-65050000D01*
X18870000Y-62502750D01*
X42712000Y-62502750D01*
X42712000Y-63193309D01*
X42808673Y-63426698D01*
X42987301Y-63605327D01*
X43220690Y-63702000D01*
X43911250Y-63702000D01*
X44070000Y-63543250D01*
X44070000Y-62344000D01*
X42870750Y-62344000D01*
X42712000Y-62502750D01*
X18870000Y-62502750D01*
X18870000Y-61240691D01*
X42712000Y-61240691D01*
X42712000Y-61931250D01*
X42870750Y-62090000D01*
X44070000Y-62090000D01*
X44070000Y-60890750D01*
X44324000Y-60890750D01*
X44324000Y-62090000D01*
X44344000Y-62090000D01*
X44344000Y-62344000D01*
X44324000Y-62344000D01*
X44324000Y-63543250D01*
X44482750Y-63702000D01*
X45173310Y-63702000D01*
X45406699Y-63605327D01*
X45585327Y-63426698D01*
X45657597Y-63252223D01*
X45686946Y-63296147D01*
X46168715Y-63618054D01*
X46737000Y-63731093D01*
X47305285Y-63618054D01*
X47787054Y-63296147D01*
X48007000Y-62966974D01*
X48226946Y-63296147D01*
X48708715Y-63618054D01*
X49277000Y-63731093D01*
X49845285Y-63618054D01*
X50327054Y-63296147D01*
X50547000Y-62966974D01*
X50766946Y-63296147D01*
X51248715Y-63618054D01*
X51817000Y-63731093D01*
X52385285Y-63618054D01*
X52867054Y-63296147D01*
X53188961Y-62814378D01*
X53302000Y-62246093D01*
X53302000Y-62187907D01*
X53222852Y-61790000D01*
X71455000Y-61790000D01*
X71455000Y-62230000D01*
X71526173Y-62587809D01*
X71728855Y-62891145D01*
X72032191Y-63093827D01*
X72390000Y-63165000D01*
X72747809Y-63093827D01*
X73051145Y-62891145D01*
X73253827Y-62587809D01*
X73325000Y-62230000D01*
X73995000Y-62230000D01*
X74066173Y-62587809D01*
X74268855Y-62891145D01*
X74572191Y-63093827D01*
X74930000Y-63165000D01*
X79798554Y-63165000D01*
X79826838Y-63315317D01*
X79965910Y-63531441D01*
X80178110Y-63676431D01*
X80430000Y-63727440D01*
X82130000Y-63727440D01*
X82365317Y-63683162D01*
X82581441Y-63544090D01*
X82726431Y-63331890D01*
X82740086Y-63264459D01*
X82769946Y-63309147D01*
X83251715Y-63631054D01*
X83820000Y-63744093D01*
X84388285Y-63631054D01*
X84870054Y-63309147D01*
X85191961Y-62827378D01*
X85305000Y-62259093D01*
X85305000Y-62200907D01*
X85191961Y-61632622D01*
X84870054Y-61150853D01*
X84388285Y-60828946D01*
X83820000Y-60715907D01*
X83251715Y-60828946D01*
X82769946Y-61150853D01*
X82742150Y-61192452D01*
X82733162Y-61144683D01*
X82594090Y-60928559D01*
X82381890Y-60783569D01*
X82130000Y-60732560D01*
X80430000Y-60732560D01*
X80194683Y-60776838D01*
X79978559Y-60915910D01*
X79833569Y-61128110D01*
X79799773Y-61295000D01*
X74930000Y-61295000D01*
X74572191Y-61366173D01*
X74268855Y-61568855D01*
X74066173Y-61872191D01*
X73995000Y-62230000D01*
X73325000Y-62230000D01*
X73325000Y-61790000D01*
X73253827Y-61432191D01*
X73117939Y-61228819D01*
X73092148Y-61099161D01*
X72927401Y-60852599D01*
X72680839Y-60687852D01*
X72390000Y-60630000D01*
X72099161Y-60687852D01*
X71852599Y-60852599D01*
X71687852Y-61099161D01*
X71662061Y-61228819D01*
X71526173Y-61432191D01*
X71455000Y-61790000D01*
X53222852Y-61790000D01*
X53188961Y-61619622D01*
X52867054Y-61137853D01*
X52385285Y-60815946D01*
X51817000Y-60702907D01*
X51248715Y-60815946D01*
X50766946Y-61137853D01*
X50547000Y-61467026D01*
X50327054Y-61137853D01*
X49845285Y-60815946D01*
X49277000Y-60702907D01*
X48708715Y-60815946D01*
X48226946Y-61137853D01*
X48007000Y-61467026D01*
X47787054Y-61137853D01*
X47305285Y-60815946D01*
X46737000Y-60702907D01*
X46168715Y-60815946D01*
X45686946Y-61137853D01*
X45657597Y-61181777D01*
X45585327Y-61007302D01*
X45406699Y-60828673D01*
X45173310Y-60732000D01*
X44482750Y-60732000D01*
X44324000Y-60890750D01*
X44070000Y-60890750D01*
X43911250Y-60732000D01*
X43220690Y-60732000D01*
X42987301Y-60828673D01*
X42808673Y-61007302D01*
X42712000Y-61240691D01*
X18870000Y-61240691D01*
X18870000Y-32800000D01*
X26662560Y-32800000D01*
X26662560Y-36550000D01*
X26706838Y-36785317D01*
X26845910Y-37001441D01*
X27058110Y-37146431D01*
X27310000Y-37197440D01*
X31060000Y-37197440D01*
X31295317Y-37153162D01*
X31511441Y-37014090D01*
X31656431Y-36801890D01*
X31707440Y-36550000D01*
X31707440Y-34379530D01*
X34049782Y-34379530D01*
X34241201Y-34842800D01*
X34595335Y-35197553D01*
X35058271Y-35389781D01*
X35559530Y-35390218D01*
X36022800Y-35198799D01*
X36211049Y-35010878D01*
X37148727Y-35010878D01*
X37201325Y-35238890D01*
X37675056Y-35402717D01*
X38175420Y-35372785D01*
X38498675Y-35238890D01*
X38551273Y-35010878D01*
X37850000Y-34309605D01*
X37148727Y-35010878D01*
X36211049Y-35010878D01*
X36377553Y-34844665D01*
X36569781Y-34381729D01*
X36570152Y-33955056D01*
X36577283Y-33955056D01*
X36607215Y-34455420D01*
X36741110Y-34778675D01*
X36969122Y-34831273D01*
X37670395Y-34130000D01*
X38029605Y-34130000D01*
X38730878Y-34831273D01*
X38958890Y-34778675D01*
X39122717Y-34304944D01*
X39092785Y-33804580D01*
X38958890Y-33481325D01*
X38730878Y-33428727D01*
X38029605Y-34130000D01*
X37670395Y-34130000D01*
X36969122Y-33428727D01*
X36741110Y-33481325D01*
X36577283Y-33955056D01*
X36570152Y-33955056D01*
X36570218Y-33880470D01*
X36378799Y-33417200D01*
X36211015Y-33249122D01*
X37148727Y-33249122D01*
X37850000Y-33950395D01*
X38551273Y-33249122D01*
X38498675Y-33021110D01*
X38024944Y-32857283D01*
X37524580Y-32887215D01*
X37201325Y-33021110D01*
X37148727Y-33249122D01*
X36211015Y-33249122D01*
X36024665Y-33062447D01*
X35561729Y-32870219D01*
X35060470Y-32869782D01*
X34597200Y-33061201D01*
X34242447Y-33415335D01*
X34050219Y-33878271D01*
X34049782Y-34379530D01*
X31707440Y-34379530D01*
X31707440Y-32800000D01*
X31663162Y-32564683D01*
X31524090Y-32348559D01*
X31311890Y-32203569D01*
X31060000Y-32152560D01*
X27310000Y-32152560D01*
X27074683Y-32196838D01*
X26858559Y-32335910D01*
X26713569Y-32548110D01*
X26662560Y-32800000D01*
X18870000Y-32800000D01*
X18870000Y-30485730D01*
X18988110Y-30566431D01*
X19240000Y-30617440D01*
X20640000Y-30617440D01*
X20875317Y-30573162D01*
X21091441Y-30434090D01*
X21236431Y-30221890D01*
X21287440Y-29970000D01*
X21287440Y-28170000D01*
X21892560Y-28170000D01*
X21892560Y-29970000D01*
X21936838Y-30205317D01*
X22075910Y-30421441D01*
X22288110Y-30566431D01*
X22540000Y-30617440D01*
X23940000Y-30617440D01*
X24175317Y-30573162D01*
X24391441Y-30434090D01*
X24536431Y-30221890D01*
X24587440Y-29970000D01*
X24587440Y-28797362D01*
X26147401Y-27237401D01*
X26312148Y-26990839D01*
X26370000Y-26700000D01*
X26370000Y-24384802D01*
X27843123Y-22911679D01*
X27763569Y-23028110D01*
X27712560Y-23280000D01*
X27712560Y-24980000D01*
X27756838Y-25215317D01*
X27895910Y-25431441D01*
X28108110Y-25576431D01*
X28175541Y-25590086D01*
X28130853Y-25619946D01*
X27808946Y-26101715D01*
X27695907Y-26670000D01*
X27808946Y-27238285D01*
X28130853Y-27720054D01*
X28460026Y-27940000D01*
X28130853Y-28159946D01*
X27808946Y-28641715D01*
X27695907Y-29210000D01*
X27808946Y-29778285D01*
X28130853Y-30260054D01*
X28612622Y-30581961D01*
X29180907Y-30695000D01*
X29239093Y-30695000D01*
X29556969Y-30631771D01*
X30732599Y-31807401D01*
X30979161Y-31972148D01*
X31270000Y-32030000D01*
X33610000Y-32030000D01*
X33900839Y-31972148D01*
X34147401Y-31807401D01*
X34267504Y-31687298D01*
X34295910Y-31731441D01*
X34508110Y-31876431D01*
X34760000Y-31927440D01*
X36360000Y-31927440D01*
X36595317Y-31883162D01*
X36811441Y-31744090D01*
X36956431Y-31531890D01*
X36987815Y-31376911D01*
X37085302Y-31522811D01*
X37550849Y-31833880D01*
X38100000Y-31943113D01*
X38649151Y-31833880D01*
X38692807Y-31804710D01*
X39869742Y-32981644D01*
X39677200Y-33061201D01*
X39322447Y-33415335D01*
X39130219Y-33878271D01*
X39129782Y-34379530D01*
X39321201Y-34842800D01*
X39675335Y-35197553D01*
X40138271Y-35389781D01*
X40639530Y-35390218D01*
X41102800Y-35198799D01*
X41457553Y-34844665D01*
X41538301Y-34650204D01*
X41555499Y-34667402D01*
X41802061Y-34832148D01*
X41862586Y-34844187D01*
X42215335Y-35197553D01*
X42678271Y-35389781D01*
X43179530Y-35390218D01*
X43642800Y-35198799D01*
X43997553Y-34844665D01*
X44074574Y-34659177D01*
X44082799Y-34667402D01*
X44329361Y-34832148D01*
X44405732Y-34847339D01*
X44755335Y-35197553D01*
X45218271Y-35389781D01*
X45719530Y-35390218D01*
X46182800Y-35198799D01*
X46537553Y-34844665D01*
X46618301Y-34650204D01*
X46635499Y-34667402D01*
X46882061Y-34832148D01*
X46942586Y-34844187D01*
X47295335Y-35197553D01*
X47758271Y-35389781D01*
X48259530Y-35390218D01*
X48722800Y-35198799D01*
X49077553Y-34844665D01*
X49169479Y-34623282D01*
X49213599Y-34667402D01*
X49460161Y-34832148D01*
X49478290Y-34835754D01*
X49481201Y-34842800D01*
X49835335Y-35197553D01*
X50298271Y-35389781D01*
X50799530Y-35390218D01*
X51262800Y-35198799D01*
X51617553Y-34844665D01*
X51698301Y-34650204D01*
X51715499Y-34667402D01*
X51960751Y-34831273D01*
X51962061Y-34832148D01*
X52022586Y-34844187D01*
X52375335Y-35197553D01*
X52838271Y-35389781D01*
X53339530Y-35390218D01*
X53802800Y-35198799D01*
X54157553Y-34844665D01*
X54349781Y-34381729D01*
X54350218Y-33880470D01*
X54158799Y-33417200D01*
X53804665Y-33062447D01*
X53341729Y-32870219D01*
X52840470Y-32869782D01*
X52377200Y-33061201D01*
X52318000Y-33120297D01*
X50972756Y-31775054D01*
X51149039Y-31871904D01*
X51537423Y-31711041D01*
X51952389Y-31335134D01*
X52055014Y-31118297D01*
X52325302Y-31522811D01*
X52790849Y-31833880D01*
X53340000Y-31943113D01*
X53889151Y-31833880D01*
X54354698Y-31522811D01*
X54610000Y-31140725D01*
X54865302Y-31522811D01*
X55330849Y-31833880D01*
X55880000Y-31943113D01*
X56429151Y-31833880D01*
X56894698Y-31522811D01*
X57150000Y-31140725D01*
X57405302Y-31522811D01*
X57870849Y-31833880D01*
X58061579Y-31871819D01*
X58028998Y-31904400D01*
X57095600Y-31904400D01*
X56804760Y-31962252D01*
X56558199Y-32126999D01*
X55815037Y-32870161D01*
X55380470Y-32869782D01*
X54917200Y-33061201D01*
X54562447Y-33415335D01*
X54370219Y-33878271D01*
X54369782Y-34379530D01*
X54561201Y-34842800D01*
X54915335Y-35197553D01*
X55378271Y-35389781D01*
X55879530Y-35390218D01*
X56342800Y-35198799D01*
X56697553Y-34844665D01*
X56889781Y-34381729D01*
X56890162Y-33944640D01*
X56910179Y-33924623D01*
X56909782Y-34379530D01*
X57101201Y-34842800D01*
X57455335Y-35197553D01*
X57918271Y-35389781D01*
X58419530Y-35390218D01*
X58882800Y-35198799D01*
X59237553Y-34844665D01*
X59429781Y-34381729D01*
X59430162Y-33944640D01*
X59450179Y-33924623D01*
X59449782Y-34379530D01*
X59641201Y-34842800D01*
X59995335Y-35197553D01*
X60458271Y-35389781D01*
X60959530Y-35390218D01*
X61422800Y-35198799D01*
X61777553Y-34844665D01*
X61969781Y-34381729D01*
X61970162Y-33944640D01*
X61990179Y-33924623D01*
X61989782Y-34379530D01*
X62181201Y-34842800D01*
X62535335Y-35197553D01*
X62998271Y-35389781D01*
X63499530Y-35390218D01*
X63962800Y-35198799D01*
X64317553Y-34844665D01*
X64509781Y-34381729D01*
X64510162Y-33944640D01*
X64530179Y-33924623D01*
X64529782Y-34379530D01*
X64721201Y-34842800D01*
X65075335Y-35197553D01*
X65538271Y-35389781D01*
X66039530Y-35390218D01*
X66502800Y-35198799D01*
X66857553Y-34844665D01*
X67049781Y-34381729D01*
X67050162Y-33944640D01*
X67070179Y-33924623D01*
X67069782Y-34379530D01*
X67261201Y-34842800D01*
X67615335Y-35197553D01*
X68078271Y-35389781D01*
X68579530Y-35390218D01*
X69042800Y-35198799D01*
X69397553Y-34844665D01*
X69589781Y-34381729D01*
X69590218Y-33880470D01*
X69398799Y-33417200D01*
X69296540Y-33314762D01*
X69811302Y-32800000D01*
X102912560Y-32800000D01*
X102912560Y-36550000D01*
X102956838Y-36785317D01*
X103095910Y-37001441D01*
X103308110Y-37146431D01*
X103560000Y-37197440D01*
X107310000Y-37197440D01*
X107545317Y-37153162D01*
X107761441Y-37014090D01*
X107906431Y-36801890D01*
X107957440Y-36550000D01*
X107957440Y-32800000D01*
X107913162Y-32564683D01*
X107774090Y-32348559D01*
X107561890Y-32203569D01*
X107310000Y-32152560D01*
X103560000Y-32152560D01*
X103324683Y-32196838D01*
X103108559Y-32335910D01*
X102963569Y-32548110D01*
X102912560Y-32800000D01*
X69811302Y-32800000D01*
X70577901Y-32033401D01*
X70742648Y-31786840D01*
X70800500Y-31496000D01*
X70800500Y-29908500D01*
X70742648Y-29617661D01*
X70577901Y-29371099D01*
X69340000Y-28133198D01*
X69340000Y-26974802D01*
X72172599Y-29807401D01*
X72419161Y-29972148D01*
X72710000Y-30030000D01*
X76710000Y-30030000D01*
X77000839Y-29972148D01*
X77247401Y-29807401D01*
X79624802Y-27430000D01*
X86706253Y-27430000D01*
X86856218Y-27792943D01*
X87414120Y-28351819D01*
X88143427Y-28654654D01*
X88933109Y-28655343D01*
X89662943Y-28353782D01*
X90221819Y-27795880D01*
X90524654Y-27066573D01*
X90525343Y-26276891D01*
X90223782Y-25547057D01*
X89665880Y-24988181D01*
X88936573Y-24685346D01*
X88710000Y-24685148D01*
X88710000Y-23973991D01*
X94064735Y-23973991D01*
X94297932Y-24538371D01*
X94729357Y-24970551D01*
X95293330Y-25204733D01*
X95903991Y-25205265D01*
X96248643Y-25062858D01*
X96215241Y-25143298D01*
X96214760Y-25694285D01*
X96425169Y-26203515D01*
X96665000Y-26443764D01*
X96665000Y-26896390D01*
X96426539Y-27134436D01*
X96215241Y-27643298D01*
X96214760Y-28194285D01*
X96249131Y-28277469D01*
X95906670Y-28135267D01*
X95296009Y-28134735D01*
X94731629Y-28367932D01*
X94299449Y-28799357D01*
X94065267Y-29363330D01*
X94064735Y-29973991D01*
X94297932Y-30538371D01*
X94729357Y-30970551D01*
X95293330Y-31204733D01*
X95903991Y-31205265D01*
X96468371Y-30972068D01*
X96900551Y-30540643D01*
X97134733Y-29976670D01*
X97135265Y-29366009D01*
X97065773Y-29197825D01*
X97323298Y-29304759D01*
X97874285Y-29305240D01*
X98383515Y-29094831D01*
X98773461Y-28705564D01*
X98984759Y-28196702D01*
X98985240Y-27645715D01*
X98774831Y-27136485D01*
X98535000Y-26896236D01*
X98535000Y-26443610D01*
X98773461Y-26205564D01*
X98984759Y-25696702D01*
X98984761Y-25694285D01*
X100214760Y-25694285D01*
X100425169Y-26203515D01*
X100665000Y-26443764D01*
X100665000Y-26896390D01*
X100426539Y-27134436D01*
X100215241Y-27643298D01*
X100214760Y-28194285D01*
X100425169Y-28703515D01*
X100814436Y-29093461D01*
X101323298Y-29304759D01*
X101874285Y-29305240D01*
X102383515Y-29094831D01*
X102773461Y-28705564D01*
X102984759Y-28196702D01*
X102985240Y-27645715D01*
X102774831Y-27136485D01*
X102535000Y-26896236D01*
X102535000Y-26443610D01*
X102773461Y-26205564D01*
X102984759Y-25696702D01*
X102984761Y-25694285D01*
X104214760Y-25694285D01*
X104425169Y-26203515D01*
X104665000Y-26443764D01*
X104665000Y-26896390D01*
X104426539Y-27134436D01*
X104215241Y-27643298D01*
X104214760Y-28194285D01*
X104425169Y-28703515D01*
X104814436Y-29093461D01*
X105323298Y-29304759D01*
X105874285Y-29305240D01*
X106133937Y-29197954D01*
X106065267Y-29363330D01*
X106064735Y-29973991D01*
X106297932Y-30538371D01*
X106729357Y-30970551D01*
X107293330Y-31204733D01*
X107903991Y-31205265D01*
X108468371Y-30972068D01*
X108900551Y-30540643D01*
X108949133Y-30423643D01*
X109158110Y-30566431D01*
X109410000Y-30617440D01*
X110787758Y-30617440D01*
X109572599Y-31832599D01*
X109407852Y-32079161D01*
X109350000Y-32370000D01*
X109350000Y-69723850D01*
X109174683Y-69756838D01*
X108958559Y-69895910D01*
X108813569Y-70108110D01*
X108762560Y-70360000D01*
X108762560Y-72160000D01*
X108806838Y-72395317D01*
X108945910Y-72611441D01*
X109158110Y-72756431D01*
X109410000Y-72807440D01*
X110810000Y-72807440D01*
X111045317Y-72763162D01*
X111261441Y-72624090D01*
X111406431Y-72411890D01*
X111457440Y-72160000D01*
X111457440Y-71545750D01*
X112075000Y-71545750D01*
X112075000Y-72286310D01*
X112171673Y-72519699D01*
X112350302Y-72698327D01*
X112583691Y-72795000D01*
X113124250Y-72795000D01*
X113283000Y-72636250D01*
X113283000Y-71387000D01*
X113537000Y-71387000D01*
X113537000Y-72636250D01*
X113695750Y-72795000D01*
X114236309Y-72795000D01*
X114469698Y-72698327D01*
X114648327Y-72519699D01*
X114745000Y-72286310D01*
X114745000Y-71545750D01*
X114586250Y-71387000D01*
X113537000Y-71387000D01*
X113283000Y-71387000D01*
X112233750Y-71387000D01*
X112075000Y-71545750D01*
X111457440Y-71545750D01*
X111457440Y-70360000D01*
X111433674Y-70233690D01*
X112075000Y-70233690D01*
X112075000Y-70974250D01*
X112233750Y-71133000D01*
X113283000Y-71133000D01*
X113283000Y-69883750D01*
X113537000Y-69883750D01*
X113537000Y-71133000D01*
X114586250Y-71133000D01*
X114745000Y-70974250D01*
X114745000Y-70233690D01*
X114648327Y-70000301D01*
X114469698Y-69821673D01*
X114236309Y-69725000D01*
X113695750Y-69725000D01*
X113537000Y-69883750D01*
X113283000Y-69883750D01*
X113124250Y-69725000D01*
X112583691Y-69725000D01*
X112350302Y-69821673D01*
X112171673Y-70000301D01*
X112075000Y-70233690D01*
X111433674Y-70233690D01*
X111413162Y-70124683D01*
X111274090Y-69908559D01*
X111061890Y-69763569D01*
X110870000Y-69724710D01*
X110870000Y-32684802D01*
X112937362Y-30617440D01*
X114110000Y-30617440D01*
X114345317Y-30573162D01*
X114561441Y-30434090D01*
X114706431Y-30221890D01*
X114757440Y-29970000D01*
X114757440Y-28170000D01*
X114713162Y-27934683D01*
X114574090Y-27718559D01*
X114361890Y-27573569D01*
X114110000Y-27522560D01*
X112710000Y-27522560D01*
X112474683Y-27566838D01*
X112258559Y-27705910D01*
X112113569Y-27918110D01*
X112062560Y-28170000D01*
X112062560Y-29342638D01*
X111457440Y-29947758D01*
X111457440Y-28170000D01*
X111413162Y-27934683D01*
X111274090Y-27718559D01*
X111061890Y-27573569D01*
X110810000Y-27522560D01*
X109410000Y-27522560D01*
X109174683Y-27566838D01*
X108958559Y-27705910D01*
X108813569Y-27918110D01*
X108762560Y-28170000D01*
X108762560Y-28661877D01*
X108470643Y-28369449D01*
X107906670Y-28135267D01*
X107296009Y-28134735D01*
X106951357Y-28277142D01*
X106984759Y-28196702D01*
X106985240Y-27645715D01*
X106774831Y-27136485D01*
X106535000Y-26896236D01*
X106535000Y-26443610D01*
X106773461Y-26205564D01*
X106984759Y-25696702D01*
X106985240Y-25145715D01*
X106950869Y-25062531D01*
X107293330Y-25204733D01*
X107903991Y-25205265D01*
X108468371Y-24972068D01*
X108762560Y-24678393D01*
X108762560Y-25170000D01*
X108806838Y-25405317D01*
X108945910Y-25621441D01*
X109158110Y-25766431D01*
X109410000Y-25817440D01*
X110810000Y-25817440D01*
X111045317Y-25773162D01*
X111261441Y-25634090D01*
X111406431Y-25421890D01*
X111457440Y-25170000D01*
X111457440Y-24555750D01*
X112075000Y-24555750D01*
X112075000Y-25296310D01*
X112171673Y-25529699D01*
X112350302Y-25708327D01*
X112583691Y-25805000D01*
X113124250Y-25805000D01*
X113283000Y-25646250D01*
X113283000Y-24397000D01*
X113537000Y-24397000D01*
X113537000Y-25646250D01*
X113695750Y-25805000D01*
X114236309Y-25805000D01*
X114469698Y-25708327D01*
X114648327Y-25529699D01*
X114745000Y-25296310D01*
X114745000Y-24555750D01*
X114586250Y-24397000D01*
X113537000Y-24397000D01*
X113283000Y-24397000D01*
X112233750Y-24397000D01*
X112075000Y-24555750D01*
X111457440Y-24555750D01*
X111457440Y-23370000D01*
X111433674Y-23243690D01*
X112075000Y-23243690D01*
X112075000Y-23984250D01*
X112233750Y-24143000D01*
X113283000Y-24143000D01*
X113283000Y-22893750D01*
X113537000Y-22893750D01*
X113537000Y-24143000D01*
X114586250Y-24143000D01*
X114745000Y-23984250D01*
X114745000Y-23243690D01*
X114648327Y-23010301D01*
X114469698Y-22831673D01*
X114236309Y-22735000D01*
X113695750Y-22735000D01*
X113537000Y-22893750D01*
X113283000Y-22893750D01*
X113124250Y-22735000D01*
X112583691Y-22735000D01*
X112350302Y-22831673D01*
X112171673Y-23010301D01*
X112075000Y-23243690D01*
X111433674Y-23243690D01*
X111413162Y-23134683D01*
X111274090Y-22918559D01*
X111061890Y-22773569D01*
X110810000Y-22722560D01*
X109410000Y-22722560D01*
X109174683Y-22766838D01*
X108958559Y-22905910D01*
X108950207Y-22918134D01*
X108902068Y-22801629D01*
X108470643Y-22369449D01*
X107906670Y-22135267D01*
X107296009Y-22134735D01*
X106731629Y-22367932D01*
X106299449Y-22799357D01*
X106065267Y-23363330D01*
X106064735Y-23973991D01*
X106134227Y-24142175D01*
X105876702Y-24035241D01*
X105325715Y-24034760D01*
X104816485Y-24245169D01*
X104426539Y-24634436D01*
X104215241Y-25143298D01*
X104214760Y-25694285D01*
X102984761Y-25694285D01*
X102985240Y-25145715D01*
X102774831Y-24636485D01*
X102385564Y-24246539D01*
X101876702Y-24035241D01*
X101325715Y-24034760D01*
X100816485Y-24245169D01*
X100426539Y-24634436D01*
X100215241Y-25143298D01*
X100214760Y-25694285D01*
X98984761Y-25694285D01*
X98985240Y-25145715D01*
X98774831Y-24636485D01*
X98385564Y-24246539D01*
X97876702Y-24035241D01*
X97325715Y-24034760D01*
X97066063Y-24142046D01*
X97134733Y-23976670D01*
X97135265Y-23366009D01*
X96902068Y-22801629D01*
X96470643Y-22369449D01*
X95906670Y-22135267D01*
X95296009Y-22134735D01*
X94731629Y-22367932D01*
X94299449Y-22799357D01*
X94065267Y-23363330D01*
X94064735Y-23973991D01*
X88710000Y-23973991D01*
X88710000Y-21312334D01*
X88785317Y-21298162D01*
X88899978Y-21224380D01*
X88998110Y-21291431D01*
X89250000Y-21342440D01*
X90450000Y-21342440D01*
X90685317Y-21298162D01*
X90901441Y-21159090D01*
X91046431Y-20946890D01*
X91097440Y-20695000D01*
X91097440Y-19945000D01*
X91053162Y-19709683D01*
X90914090Y-19493559D01*
X90701890Y-19348569D01*
X90450000Y-19297560D01*
X89250000Y-19297560D01*
X89014683Y-19341838D01*
X88900022Y-19415620D01*
X88801890Y-19348569D01*
X88550000Y-19297560D01*
X87350000Y-19297560D01*
X87114683Y-19341838D01*
X86898559Y-19480910D01*
X86753569Y-19693110D01*
X86702560Y-19945000D01*
X86702560Y-20695000D01*
X86746838Y-20930317D01*
X86885910Y-21146441D01*
X87098110Y-21291431D01*
X87190000Y-21310039D01*
X87190000Y-25212879D01*
X86858181Y-25544120D01*
X86706254Y-25910000D01*
X79310000Y-25910000D01*
X79019160Y-25967852D01*
X78772599Y-26132599D01*
X78184956Y-26720242D01*
X78185343Y-26276891D01*
X77883782Y-25547057D01*
X77325880Y-24988181D01*
X76596573Y-24685346D01*
X76010000Y-24684834D01*
X76010000Y-21312334D01*
X76085317Y-21298162D01*
X76199978Y-21224380D01*
X76298110Y-21291431D01*
X76550000Y-21342440D01*
X77750000Y-21342440D01*
X77985317Y-21298162D01*
X78201441Y-21159090D01*
X78346431Y-20946890D01*
X78397440Y-20695000D01*
X78397440Y-19945000D01*
X78353162Y-19709683D01*
X78214090Y-19493559D01*
X78001890Y-19348569D01*
X77750000Y-19297560D01*
X76550000Y-19297560D01*
X76314683Y-19341838D01*
X76200022Y-19415620D01*
X76101890Y-19348569D01*
X75850000Y-19297560D01*
X74650000Y-19297560D01*
X74414683Y-19341838D01*
X74198559Y-19480910D01*
X74053569Y-19693110D01*
X74002560Y-19945000D01*
X74002560Y-20695000D01*
X74046838Y-20930317D01*
X74185910Y-21146441D01*
X74398110Y-21291431D01*
X74490000Y-21310039D01*
X74490000Y-25611987D01*
X74366254Y-25910000D01*
X71824802Y-25910000D01*
X70345122Y-24430320D01*
X70345162Y-24384833D01*
X70203117Y-24041057D01*
X69940327Y-23777808D01*
X69735150Y-23692611D01*
X69905767Y-23437264D01*
X70015000Y-22888113D01*
X70015000Y-22831887D01*
X69905767Y-22282736D01*
X69594698Y-21817189D01*
X69129151Y-21506120D01*
X68580000Y-21396887D01*
X68030849Y-21506120D01*
X67565302Y-21817189D01*
X67310000Y-22199275D01*
X67054698Y-21817189D01*
X66589151Y-21506120D01*
X66040000Y-21396887D01*
X65490849Y-21506120D01*
X65025302Y-21817189D01*
X64770000Y-22199275D01*
X64514698Y-21817189D01*
X64049151Y-21506120D01*
X63500000Y-21396887D01*
X62950849Y-21506120D01*
X62485302Y-21817189D01*
X62230000Y-22199275D01*
X61974698Y-21817189D01*
X61509151Y-21506120D01*
X60960000Y-21396887D01*
X60410849Y-21506120D01*
X59945302Y-21817189D01*
X59690000Y-22199275D01*
X59434698Y-21817189D01*
X58969151Y-21506120D01*
X58420000Y-21396887D01*
X57870849Y-21506120D01*
X57405302Y-21817189D01*
X57135014Y-22221703D01*
X57032389Y-22004866D01*
X56617423Y-21628959D01*
X56229039Y-21468096D01*
X56007000Y-21590085D01*
X56007000Y-22733000D01*
X56027000Y-22733000D01*
X56027000Y-22987000D01*
X56007000Y-22987000D01*
X56007000Y-24129915D01*
X56229039Y-24251904D01*
X56617423Y-24091041D01*
X57032389Y-23715134D01*
X57135014Y-23498297D01*
X57405302Y-23902811D01*
X57870849Y-24213880D01*
X58420000Y-24323113D01*
X58969151Y-24213880D01*
X59434698Y-23902811D01*
X59690000Y-23520725D01*
X59945302Y-23902811D01*
X60105721Y-24010000D01*
X60010000Y-24010000D01*
X59719161Y-24067852D01*
X59472599Y-24232599D01*
X55342599Y-28362599D01*
X55177852Y-28609161D01*
X55120000Y-28900000D01*
X55120000Y-29267005D01*
X54865302Y-29437189D01*
X54610000Y-29819275D01*
X54354698Y-29437189D01*
X53889151Y-29126120D01*
X53340000Y-29016887D01*
X52790849Y-29126120D01*
X52325302Y-29437189D01*
X52055014Y-29841703D01*
X51952389Y-29624866D01*
X51537423Y-29248959D01*
X51149039Y-29088096D01*
X50927000Y-29210085D01*
X50927000Y-30353000D01*
X50947000Y-30353000D01*
X50947000Y-30607000D01*
X50927000Y-30607000D01*
X50927000Y-30627000D01*
X50673000Y-30627000D01*
X50673000Y-30607000D01*
X50653000Y-30607000D01*
X50653000Y-30353000D01*
X50673000Y-30353000D01*
X50673000Y-29210085D01*
X50450961Y-29088096D01*
X50062577Y-29248959D01*
X49647611Y-29624866D01*
X49544986Y-29841703D01*
X49274698Y-29437189D01*
X48809151Y-29126120D01*
X48260000Y-29016887D01*
X47710849Y-29126120D01*
X47245302Y-29437189D01*
X46990000Y-29819275D01*
X46734698Y-29437189D01*
X46269151Y-29126120D01*
X45720000Y-29016887D01*
X45170849Y-29126120D01*
X44705302Y-29437189D01*
X44450000Y-29819275D01*
X44194698Y-29437189D01*
X43729151Y-29126120D01*
X43180000Y-29016887D01*
X42630849Y-29126120D01*
X42165302Y-29437189D01*
X41910000Y-29819275D01*
X41654698Y-29437189D01*
X41189151Y-29126120D01*
X40640000Y-29016887D01*
X40090849Y-29126120D01*
X39625302Y-29437189D01*
X39370000Y-29819275D01*
X39114698Y-29437189D01*
X38649151Y-29126120D01*
X38100000Y-29016887D01*
X37550849Y-29126120D01*
X37085302Y-29437189D01*
X36988899Y-29581465D01*
X36963162Y-29444683D01*
X36824090Y-29228559D01*
X36611890Y-29083569D01*
X36360000Y-29032560D01*
X34760000Y-29032560D01*
X34524683Y-29076838D01*
X34308559Y-29215910D01*
X34163569Y-29428110D01*
X34112560Y-29680000D01*
X34112560Y-29777176D01*
X34109161Y-29777852D01*
X33862599Y-29942599D01*
X33295198Y-30510000D01*
X32455075Y-30510000D01*
X32829147Y-30260054D01*
X33151054Y-29778285D01*
X33264093Y-29210000D01*
X33168615Y-28730000D01*
X35310000Y-28730000D01*
X35600839Y-28672148D01*
X35847401Y-28507401D01*
X35949680Y-28405122D01*
X35995167Y-28405162D01*
X36338943Y-28263117D01*
X36602192Y-28000327D01*
X36744838Y-27656799D01*
X36745162Y-27284833D01*
X36603117Y-26941057D01*
X36340327Y-26677808D01*
X35996799Y-26535162D01*
X35624833Y-26534838D01*
X35281057Y-26676883D01*
X35017808Y-26939673D01*
X34905558Y-27210000D01*
X33156680Y-27210000D01*
X33264093Y-26670000D01*
X33151054Y-26101715D01*
X32829147Y-25619946D01*
X32488447Y-25392298D01*
X32631358Y-25325183D01*
X33021645Y-24896924D01*
X33191476Y-24486890D01*
X33070155Y-24257000D01*
X31877000Y-24257000D01*
X31877000Y-24277000D01*
X31623000Y-24277000D01*
X31623000Y-24257000D01*
X31603000Y-24257000D01*
X31603000Y-24003000D01*
X31623000Y-24003000D01*
X31623000Y-22809181D01*
X31877000Y-22809181D01*
X31877000Y-24003000D01*
X33070155Y-24003000D01*
X33191476Y-23773110D01*
X33021645Y-23363076D01*
X32631358Y-22934817D01*
X32106892Y-22688514D01*
X31877000Y-22809181D01*
X31623000Y-22809181D01*
X31393108Y-22688514D01*
X30868642Y-22934817D01*
X30681192Y-23140504D01*
X30663162Y-23044683D01*
X30524090Y-22828559D01*
X30311890Y-22683569D01*
X30060000Y-22632560D01*
X28360000Y-22632560D01*
X28124683Y-22676838D01*
X27993640Y-22761162D01*
X28824802Y-21930000D01*
X34469924Y-21930000D01*
X34234233Y-22282736D01*
X34125000Y-22831887D01*
X34125000Y-22888113D01*
X34234233Y-23437264D01*
X34545302Y-23902811D01*
X35010849Y-24213880D01*
X35560000Y-24323113D01*
X36109151Y-24213880D01*
X36574698Y-23902811D01*
X36830000Y-23520725D01*
X37085302Y-23902811D01*
X37550849Y-24213880D01*
X38100000Y-24323113D01*
X38649151Y-24213880D01*
X39114698Y-23902811D01*
X39370000Y-23520725D01*
X39625302Y-23902811D01*
X40090849Y-24213880D01*
X40640000Y-24323113D01*
X41189151Y-24213880D01*
X41654698Y-23902811D01*
X41910000Y-23520725D01*
X42165302Y-23902811D01*
X42630849Y-24213880D01*
X43180000Y-24323113D01*
X43729151Y-24213880D01*
X44194698Y-23902811D01*
X44450000Y-23520725D01*
X44705302Y-23902811D01*
X45170849Y-24213880D01*
X45720000Y-24323113D01*
X46269151Y-24213880D01*
X46734698Y-23902811D01*
X46990000Y-23520725D01*
X47245302Y-23902811D01*
X47710849Y-24213880D01*
X48260000Y-24323113D01*
X48809151Y-24213880D01*
X49274698Y-23902811D01*
X49530000Y-23520725D01*
X49785302Y-23902811D01*
X50250849Y-24213880D01*
X50800000Y-24323113D01*
X51349151Y-24213880D01*
X51814698Y-23902811D01*
X52084986Y-23498297D01*
X52187611Y-23715134D01*
X52602577Y-24091041D01*
X52990961Y-24251904D01*
X53213000Y-24129915D01*
X53213000Y-22987000D01*
X53467000Y-22987000D01*
X53467000Y-24129915D01*
X53689039Y-24251904D01*
X54077423Y-24091041D01*
X54492389Y-23715134D01*
X54610000Y-23466633D01*
X54727611Y-23715134D01*
X55142577Y-24091041D01*
X55530961Y-24251904D01*
X55753000Y-24129915D01*
X55753000Y-22987000D01*
X53467000Y-22987000D01*
X53213000Y-22987000D01*
X53193000Y-22987000D01*
X53193000Y-22733000D01*
X53213000Y-22733000D01*
X53213000Y-21590085D01*
X53467000Y-21590085D01*
X53467000Y-22733000D01*
X55753000Y-22733000D01*
X55753000Y-21590085D01*
X55530961Y-21468096D01*
X55142577Y-21628959D01*
X54727611Y-22004866D01*
X54610000Y-22253367D01*
X54492389Y-22004866D01*
X54077423Y-21628959D01*
X53689039Y-21468096D01*
X53467000Y-21590085D01*
X53213000Y-21590085D01*
X52990961Y-21468096D01*
X52602577Y-21628959D01*
X52187611Y-22004866D01*
X52084986Y-22221703D01*
X51814698Y-21817189D01*
X51349151Y-21506120D01*
X50800000Y-21396887D01*
X50250849Y-21506120D01*
X49785302Y-21817189D01*
X49530000Y-22199275D01*
X49274698Y-21817189D01*
X48809151Y-21506120D01*
X48449354Y-21434552D01*
X47647401Y-20632599D01*
X47400839Y-20467852D01*
X47110000Y-20410000D01*
X28510000Y-20410000D01*
X28219160Y-20467852D01*
X27972599Y-20632599D01*
X25072599Y-23532599D01*
X24907852Y-23779161D01*
X24850000Y-24070000D01*
X24850000Y-26385198D01*
X23712638Y-27522560D01*
X22540000Y-27522560D01*
X22304683Y-27566838D01*
X22088559Y-27705910D01*
X21943569Y-27918110D01*
X21892560Y-28170000D01*
X21287440Y-28170000D01*
X21243162Y-27934683D01*
X21104090Y-27718559D01*
X20891890Y-27573569D01*
X20640000Y-27522560D01*
X19240000Y-27522560D01*
X19004683Y-27566838D01*
X18870000Y-27653504D01*
X18870000Y-25784802D01*
X18928857Y-25725945D01*
X18988110Y-25766431D01*
X19240000Y-25817440D01*
X20640000Y-25817440D01*
X20875317Y-25773162D01*
X21091441Y-25634090D01*
X21236431Y-25421890D01*
X21287440Y-25170000D01*
X21287440Y-24555750D01*
X21905000Y-24555750D01*
X21905000Y-25296310D01*
X22001673Y-25529699D01*
X22180302Y-25708327D01*
X22413691Y-25805000D01*
X22954250Y-25805000D01*
X23113000Y-25646250D01*
X23113000Y-24397000D01*
X23367000Y-24397000D01*
X23367000Y-25646250D01*
X23525750Y-25805000D01*
X24066309Y-25805000D01*
X24299698Y-25708327D01*
X24478327Y-25529699D01*
X24575000Y-25296310D01*
X24575000Y-24555750D01*
X24416250Y-24397000D01*
X23367000Y-24397000D01*
X23113000Y-24397000D01*
X22063750Y-24397000D01*
X21905000Y-24555750D01*
X21287440Y-24555750D01*
X21287440Y-23370000D01*
X21263674Y-23243690D01*
X21905000Y-23243690D01*
X21905000Y-23984250D01*
X22063750Y-24143000D01*
X23113000Y-24143000D01*
X23113000Y-22893750D01*
X23367000Y-22893750D01*
X23367000Y-24143000D01*
X24416250Y-24143000D01*
X24575000Y-23984250D01*
X24575000Y-23243690D01*
X24478327Y-23010301D01*
X24299698Y-22831673D01*
X24066309Y-22735000D01*
X23525750Y-22735000D01*
X23367000Y-22893750D01*
X23113000Y-22893750D01*
X22954250Y-22735000D01*
X22413691Y-22735000D01*
X22180302Y-22831673D01*
X22001673Y-23010301D01*
X21905000Y-23243690D01*
X21263674Y-23243690D01*
X21243162Y-23134683D01*
X21104090Y-22918559D01*
X20891890Y-22773569D01*
X20640000Y-22722560D01*
X19240000Y-22722560D01*
X19004683Y-22766838D01*
X18788559Y-22905910D01*
X18643569Y-23118110D01*
X18592560Y-23370000D01*
X18592560Y-23912638D01*
X17572599Y-24932599D01*
X17407852Y-25179161D01*
X17350000Y-25470000D01*
X16638000Y-25470000D01*
X16638000Y-19945000D01*
X49872560Y-19945000D01*
X49872560Y-20695000D01*
X49916838Y-20930317D01*
X50055910Y-21146441D01*
X50268110Y-21291431D01*
X50520000Y-21342440D01*
X51720000Y-21342440D01*
X51955317Y-21298162D01*
X52058646Y-21231671D01*
X52060302Y-21233327D01*
X52293691Y-21330000D01*
X52734250Y-21330000D01*
X52893000Y-21171250D01*
X52893000Y-20447000D01*
X53147000Y-20447000D01*
X53147000Y-21171250D01*
X53305750Y-21330000D01*
X53746309Y-21330000D01*
X53979698Y-21233327D01*
X54158327Y-21054699D01*
X54255000Y-20821310D01*
X54255000Y-20605750D01*
X54096250Y-20447000D01*
X53147000Y-20447000D01*
X52893000Y-20447000D01*
X52873000Y-20447000D01*
X52873000Y-20193000D01*
X52893000Y-20193000D01*
X52893000Y-19468750D01*
X53147000Y-19468750D01*
X53147000Y-20193000D01*
X54096250Y-20193000D01*
X54255000Y-20034250D01*
X54255000Y-19818690D01*
X54158327Y-19585301D01*
X53979698Y-19406673D01*
X53746309Y-19310000D01*
X53305750Y-19310000D01*
X53147000Y-19468750D01*
X52893000Y-19468750D01*
X52734250Y-19310000D01*
X52293691Y-19310000D01*
X52060302Y-19406673D01*
X52058932Y-19408043D01*
X51971890Y-19348569D01*
X51720000Y-19297560D01*
X50520000Y-19297560D01*
X50284683Y-19341838D01*
X50068559Y-19480910D01*
X49923569Y-19693110D01*
X49872560Y-19945000D01*
X16638000Y-19945000D01*
X16638000Y-17894000D01*
X115444000Y-17894000D01*
X115444000Y-78600000D01*
M02*
